TextAR-Light.ufo
<glyph name="exclam" format="2">
  <advance width="242"/>
  <unicode hex="0021"/>
  <outline>
    <contour>
      <point x="100" y="188" type="line"/>
      <point x="140" y="188" type="line"/>
      <point x="159" y="700" type="line"/>
      <point x="81" y="700" type="line"/>
    </contour>
    <contour>
      <point x="162" y="84" type="line"/>
      <point x="80" y="84" type="line"/>
      <point x="80" y="0" type="line"/>
      <point x="162" y="0" type="line"/>
    </contour>
  </outline>
</glyph>
<glyph name="quotedbl" format="2">
  <advance width="333"/>
  <unicode hex="0022"/>
  <outline>
    <contour>
      <point x="194" y="499" type="line"/>
      <point x="231" y="499" type="line"/>
      <point x="265" y="700" type="line"/>
      <point x="194" y="700" type="line"/>
    </contour>
    <contour>
      <point x="74" y="499" type="line"/>
      <point x="111" y="499" type="line"/>
      <point x="145" y="700" type="line"/>
      <point x="74" y="700" type="line"/>
    </contour>
  </outline>
</glyph>
<glyph name="percent" format="2">
  <advance width="837"/>
  <unicode hex="0025"/>
  <outline>
    <contour>
      <point x="54" y="529" type="curve" smooth="yes"/>
      <point x="54" y="417"/>
      <point x="123" y="349"/>
      <point x="217" y="349" type="curve" smooth="yes"/>
      <point x="312" y="349"/>
      <point x="381" y="418"/>
      <point x="381" y="530" type="curve" smooth="yes"/>
      <point x="381" y="642"/>
      <point x="313" y="710"/>
      <point x="218" y="710" type="curve" smooth="yes"/>
      <point x="124" y="710"/>
      <point x="54" y="641"/>
    </contour>
    <contour>
      <point x="629" y="702" type="line"/>
      <point x="402" y="358" type="line"/>
      <point x="150" y="-2" type="line"/>
      <point x="208" y="-2" type="line"/>
      <point x="433" y="339" type="line"/>
      <point x="687" y="702" type="line"/>
    </contour>
    <contour>
      <point x="217" y="668" type="curve" smooth="yes"/>
      <point x="282" y="668"/>
      <point x="330" y="617"/>
      <point x="330" y="529" type="curve" smooth="yes"/>
      <point x="330" y="442"/>
      <point x="283" y="392"/>
      <point x="218" y="392" type="curve" smooth="yes"/>
      <point x="152" y="392"/>
      <point x="105" y="443"/>
      <point x="105" y="530" type="curve" smooth="yes"/>
      <point x="105" y="618"/>
      <point x="151" y="668"/>
    </contour>
    <contour>
      <point x="783" y="171" type="curve" smooth="yes"/>
      <point x="783" y="283"/>
      <point x="713" y="351"/>
      <point x="619" y="351" type="curve" smooth="yes"/>
      <point x="525" y="351"/>
      <point x="457" y="282"/>
      <point x="457" y="170" type="curve" smooth="yes"/>
      <point x="457" y="58"/>
      <point x="524" y="-10"/>
      <point x="618" y="-10" type="curve" smooth="yes"/>
      <point x="712" y="-10"/>
      <point x="783" y="59"/>
    </contour>
    <contour>
      <point x="619" y="32" type="curve" smooth="yes"/>
      <point x="554" y="32"/>
      <point x="508" y="83"/>
      <point x="508" y="171" type="curve" smooth="yes"/>
      <point x="508" y="258"/>
      <point x="553" y="308"/>
      <point x="618" y="308" type="curve" smooth="yes"/>
      <point x="684" y="308"/>
      <point x="732" y="257"/>
      <point x="732" y="170" type="curve" smooth="yes"/>
      <point x="732" y="82"/>
      <point x="685" y="32"/>
    </contour>
  </outline>
</glyph>
<glyph name="asterisk" format="2">
  <advance width="454"/>
  <unicode hex="002A"/>
  <guideline x="293" y="358" angle="0.0" identifier="YkQCsAMSsB"/>
  <outline>
    <contour>
      <point x="363" y="383" type="line"/>
      <point x="252" y="516" type="line"/>
      <point x="405" y="572" type="line"/>
      <point x="388" y="613" type="line"/>
      <point x="244" y="545" type="line"/>
      <point x="251" y="700" type="line"/>
      <point x="203" y="700" type="line"/>
      <point x="210" y="545" type="line"/>
      <point x="66" y="613" type="line"/>
      <point x="49" y="572" type="line"/>
      <point x="205" y="515" type="line"/>
      <point x="91" y="383" type="line"/>
      <point x="127" y="358" type="line"/>
      <point x="227" y="496" type="line"/>
      <point x="326" y="358" type="line"/>
    </contour>
  </outline>
</glyph>
<glyph name="hyphen" format="2">
  <advance width="352"/>
  <unicode hex="002D"/>
  <outline>
    <contour>
      <point x="48" y="309" type="line"/>
      <point x="48" y="258" type="line"/>
      <point x="304" y="258" type="line"/>
      <point x="304" y="309" type="line"/>
    </contour>
  </outline>
</glyph>
<glyph name="period" format="2">
  <advance width="218"/>
  <unicode hex="002E"/>
  <outline>
    <contour>
      <point x="150" y="84" type="line"/>
      <point x="68" y="84" type="line"/>
      <point x="68" y="0" type="line"/>
      <point x="150" y="0" type="line"/>
    </contour>
  </outline>
</glyph>
<glyph name="zero" format="2">
  <advance width="680"/>
  <unicode hex="0030"/>
  <outline>
    <contour>
      <point x="68" y="364" type="curve" smooth="yes"/>
      <point x="68" y="334" type="line" smooth="yes"/>
      <point x="68" y="115"/>
      <point x="176" y="-17"/>
      <point x="339" y="-17" type="curve" smooth="yes"/>
      <point x="503" y="-17"/>
      <point x="612" y="117"/>
      <point x="612" y="336" type="curve" smooth="yes"/>
      <point x="612" y="366" type="line" smooth="yes"/>
      <point x="612" y="585"/>
      <point x="505" y="717"/>
      <point x="341" y="717" type="curve" smooth="yes"/>
      <point x="178" y="717"/>
      <point x="68" y="583"/>
    </contour>
    <contour>
      <point x="131" y="366" type="line" smooth="yes"/>
      <point x="131" y="557"/>
      <point x="212" y="665"/>
      <point x="339" y="665" type="curve" smooth="yes"/>
      <point x="467" y="665"/>
      <point x="550" y="555"/>
      <point x="550" y="364" type="curve" smooth="yes"/>
      <point x="550" y="334" type="line" smooth="yes"/>
      <point x="550" y="143"/>
      <point x="469" y="35"/>
      <point x="341" y="35" type="curve" smooth="yes"/>
      <point x="214" y="35"/>
      <point x="131" y="145"/>
      <point x="131" y="336" type="curve" smooth="yes"/>
    </contour>
  </outline>
</glyph>
<glyph name="two" format="2">
  <advance width="615"/>
  <unicode hex="0032"/>
  <outline>
    <contour>
      <point x="67" y="0" type="line"/>
      <point x="558" y="0" type="line"/>
      <point x="558" y="51" type="line"/>
      <point x="136" y="51" type="line"/>
      <point x="358" y="246" type="line" smooth="yes"/>
      <point x="504" y="374"/>
      <point x="542" y="433"/>
      <point x="542" y="523" type="curve" smooth="yes"/>
      <point x="542" y="633"/>
      <point x="452" y="717"/>
      <point x="319" y="717" type="curve" smooth="yes"/>
      <point x="172" y="717"/>
      <point x="76" y="624"/>
      <point x="72" y="476" type="curve"/>
      <point x="131" y="476" type="line"/>
      <point x="135" y="597"/>
      <point x="207" y="665"/>
      <point x="317" y="665" type="curve" smooth="yes"/>
      <point x="405" y="665"/>
      <point x="479" y="607"/>
      <point x="479" y="521" type="curve" smooth="yes"/>
      <point x="479" y="457"/>
      <point x="453" y="403"/>
      <point x="319" y="284" type="curve" smooth="yes"/>
      <point x="67" y="60" type="line"/>
    </contour>
  </outline>
</glyph>
<glyph name="three" format="2">
  <advance width="629"/>
  <unicode hex="0033"/>
  <outline>
    <contour>
      <point x="502" y="188" type="curve" smooth="yes"/>
      <point x="502" y="98"/>
      <point x="428" y="35"/>
      <point x="313" y="35" type="curve" smooth="yes"/>
      <point x="197" y="35"/>
      <point x="125" y="85"/>
      <point x="120" y="206" type="curve"/>
      <point x="61" y="206" type="line"/>
      <point x="63" y="56"/>
      <point x="158" y="-17"/>
      <point x="311" y="-17" type="curve" smooth="yes"/>
      <point x="464" y="-17"/>
      <point x="565" y="72"/>
      <point x="565" y="191" type="curve" smooth="yes"/>
      <point x="565" y="282"/>
      <point x="516" y="348"/>
      <point x="373" y="371" type="curve"/>
      <point x="500" y="397"/>
      <point x="553" y="467"/>
      <point x="553" y="545" type="curve" smooth="yes"/>
      <point x="553" y="636"/>
      <point x="466" y="717"/>
      <point x="323" y="717" type="curve" smooth="yes"/>
      <point x="166" y="717"/>
      <point x="79" y="611"/>
      <point x="77" y="513" type="curve"/>
      <point x="136" y="513" type="line"/>
      <point x="143" y="595"/>
      <point x="198" y="665"/>
      <point x="319" y="665" type="curve" smooth="yes"/>
      <point x="422" y="665"/>
      <point x="490" y="615"/>
      <point x="490" y="543" type="curve" smooth="yes"/>
      <point x="490" y="471"/>
      <point x="425" y="397"/>
      <point x="277" y="397" type="curve" smooth="yes"/>
      <point x="238" y="397" type="line"/>
      <point x="238" y="346" type="line"/>
      <point x="277" y="346" type="line" smooth="yes"/>
      <point x="419" y="346"/>
      <point x="502" y="283"/>
    </contour>
  </outline>
</glyph>
<glyph name="seven" format="2">
  <advance width="574"/>
  <unicode hex="0037"/>
  <outline>
    <contour>
      <point x="215" y="0" type="line"/>
      <point x="527" y="648" type="line"/>
      <point x="527" y="700" type="line"/>
      <point x="33" y="700" type="line"/>
      <point x="33" y="647" type="line"/>
      <point x="468" y="647" type="line"/>
      <point x="148" y="0" type="line"/>
    </contour>
  </outline>
</glyph>
<glyph name="eight" format="2">
  <advance width="651"/>
  <unicode hex="0038"/>
  <outline>
    <contour>
      <point x="324" y="-17" type="curve" smooth="yes"/>
      <point x="475" y="-17"/>
      <point x="586" y="63"/>
      <point x="586" y="186" type="curve" smooth="yes"/>
      <point x="586" y="272"/>
      <point x="525" y="338"/>
      <point x="429" y="365" type="curve"/>
      <point x="512" y="392"/>
      <point x="564" y="453"/>
      <point x="564" y="528" type="curve" smooth="yes"/>
      <point x="564" y="643"/>
      <point x="466" y="717"/>
      <point x="327" y="717" type="curve" smooth="yes"/>
      <point x="189" y="717"/>
      <point x="87" y="642"/>
      <point x="87" y="526" type="curve" smooth="yes"/>
      <point x="87" y="451"/>
      <point x="140" y="391"/>
      <point x="223" y="364" type="curve"/>
      <point x="127" y="337"/>
      <point x="65" y="271"/>
      <point x="65" y="184" type="curve" smooth="yes"/>
      <point x="65" y="62"/>
      <point x="176" y="-17"/>
    </contour>
    <contour>
      <point x="326" y="388" type="curve" smooth="yes"/>
      <point x="226" y="388"/>
      <point x="149" y="441"/>
      <point x="149" y="528" type="curve" smooth="yes"/>
      <point x="149" y="613"/>
      <point x="224" y="665"/>
      <point x="325" y="665" type="curve" smooth="yes"/>
      <point x="426" y="665"/>
      <point x="502" y="612"/>
      <point x="502" y="530" type="curve" smooth="yes"/>
      <point x="502" y="441"/>
      <point x="426" y="388"/>
    </contour>
    <contour>
      <point x="326" y="35" type="curve" smooth="yes"/>
      <point x="213" y="35"/>
      <point x="127" y="93"/>
      <point x="127" y="182" type="curve" smooth="yes"/>
      <point x="127" y="280"/>
      <point x="212" y="336"/>
      <point x="325" y="336" type="curve" smooth="yes"/>
      <point x="439" y="336"/>
      <point x="524" y="280"/>
      <point x="524" y="184" type="curve" smooth="yes"/>
      <point x="524" y="92"/>
      <point x="439" y="35"/>
    </contour>
  </outline>
</glyph>
<glyph name="equal" format="2">
  <advance width="600"/>
  <unicode hex="003D"/>
  <outline>
    <contour>
      <point x="64" y="415" type="line"/>
      <point x="537" y="415" type="line"/>
      <point x="537" y="463" type="line"/>
      <point x="64" y="463" type="line"/>
    </contour>
    <contour>
      <point x="64" y="243" type="line"/>
      <point x="537" y="243" type="line"/>
      <point x="537" y="291" type="line"/>
      <point x="64" y="291" type="line"/>
    </contour>
  </outline>
</glyph>
<glyph name="at" format="2">
  <advance width="974"/>
  <unicode hex="0040"/>
  <guideline x="621" y="521" angle="242.6291198624433" identifier="3whqXdGgid"/>
  <outline>
    <contour>
      <point x="689" y="161" type="curve" smooth="yes"/>
      <point x="649" y="161"/>
      <point x="633" y="176"/>
      <point x="633" y="204" type="curve" smooth="yes"/>
      <point x="633" y="217"/>
      <point x="636" y="236"/>
      <point x="643" y="258" type="curve" smooth="yes"/>
      <point x="708" y="465" type="line"/>
      <point x="655" y="465" type="line"/>
      <point x="631" y="383" type="line"/>
      <point x="623" y="440"/>
      <point x="570" y="481"/>
      <point x="511" y="481" type="curve" smooth="yes"/>
      <point x="392" y="481"/>
      <point x="293" y="379"/>
      <point x="293" y="266" type="curve" smooth="yes"/>
      <point x="293" y="177"/>
      <point x="348" y="122"/>
      <point x="434" y="122" type="curve" smooth="yes"/>
      <point x="495" y="122"/>
      <point x="545" y="149"/>
      <point x="581" y="203" type="curve"/>
      <point x="581" y="147"/>
      <point x="618" y="122"/>
      <point x="675" y="122" type="curve" smooth="yes"/>
      <point x="801" y="122"/>
      <point x="914" y="233"/>
      <point x="914" y="405" type="curve" smooth="yes"/>
      <point x="914" y="580"/>
      <point x="763" y="716"/>
      <point x="541" y="716" type="curve" smooth="yes"/>
      <point x="278" y="716"/>
      <point x="62" y="505"/>
      <point x="62" y="250" type="curve" smooth="yes"/>
      <point x="62" y="34"/>
      <point x="199" y="-113"/>
      <point x="418" y="-113" type="curve" smooth="yes"/>
      <point x="507" y="-113"/>
      <point x="581" y="-93"/>
      <point x="645" y="-53" type="curve"/>
      <point x="625" y="-19" type="line"/>
      <point x="557" y="-58"/>
      <point x="494" y="-74"/>
      <point x="423" y="-74" type="curve" smooth="yes"/>
      <point x="225" y="-74"/>
      <point x="106" y="58"/>
      <point x="106" y="256" type="curve" smooth="yes"/>
      <point x="106" y="483"/>
      <point x="305" y="677"/>
      <point x="536" y="677" type="curve" smooth="yes"/>
      <point x="740" y="677"/>
      <point x="869" y="558"/>
      <point x="869" y="400" type="curve" smooth="yes"/>
      <point x="869" y="254"/>
      <point x="770" y="161"/>
    </contour>
    <contour>
      <point x="442" y="167" type="curve" smooth="yes"/>
      <point x="383" y="167"/>
      <point x="347" y="208"/>
      <point x="347" y="267" type="curve" smooth="yes"/>
      <point x="347" y="353"/>
      <point x="418" y="436"/>
      <point x="502" y="436" type="curve" smooth="yes"/>
      <point x="563" y="436"/>
      <point x="605" y="400"/>
      <point x="605" y="341" type="curve" smooth="yes"/>
      <point x="605" y="251"/>
      <point x="540" y="167"/>
    </contour>
  </outline>
</glyph>
<glyph name="A" format="2">
  <advance width="773"/>
  <unicode hex="0041"/>
  <anchor x="387" y="730" name="aboveUC"/>
  <anchor x="387" y="696" name="aboveUCx"/>
  <anchor x="685" y="-10" name="belowogonek"/>
  <anchor x="387" y="-30" name="below"/>
  <anchor x="387" y="4" name="belowx"/>
  <outline>
    <contour>
      <point x="103" y="0" type="line"/>
      <point x="197" y="217" type="line"/>
      <point x="575" y="217" type="line"/>
      <point x="669" y="0" type="line"/>
      <point x="735" y="0" type="line"/>
      <point x="427" y="704" type="line"/>
      <point x="348" y="704" type="line"/>
      <point x="38" y="0" type="line"/>
    </contour>
    <contour>
      <point x="219" y="268" type="line"/>
      <point x="385" y="654" type="line"/>
      <point x="553" y="268" type="line"/>
    </contour>
  </outline>
</glyph>
<glyph name="F" format="2">
  <advance width="654"/>
  <unicode hex="0046"/>
  <outline>
    <contour>
      <point x="98" y="700" type="line"/>
      <point x="98" y="0" type="line"/>
      <point x="160" y="0" type="line"/>
      <point x="160" y="326" type="line"/>
      <point x="563" y="326" type="line"/>
      <point x="563" y="377" type="line"/>
      <point x="160" y="377" type="line"/>
      <point x="160" y="649" type="line"/>
      <point x="591" y="649" type="line"/>
      <point x="591" y="700" type="line"/>
    </contour>
  </outline>
</glyph>
<glyph name="L" format="2">
  <advance width="618"/>
  <unicode hex="004C"/>
  <anchor x="129" y="730" name="aboveUC"/>
  <anchor x="274" y="700" name="topright"/>
  <anchor x="340" y="-30" name="below"/>
  <outline>
    <contour>
      <point x="98" y="700" type="line"/>
      <point x="98" y="0" type="line"/>
      <point x="582" y="0" type="line"/>
      <point x="582" y="51" type="line"/>
      <point x="160" y="51" type="line"/>
      <point x="160" y="700" type="line"/>
    </contour>
  </outline>
</glyph>
<glyph name="M" format="2">
  <advance width="891"/>
  <unicode hex="004D"/>
  <guideline x="440" y="202" angle="90.0" identifier="JWW7Lv4JdO"/>
  <anchor x="448" y="730" name="aboveUC"/>
  <anchor x="448" y="696" name="aboveUCx"/>
  <anchor x="448" y="-30" name="below"/>
  <anchor x="448" y="4" name="belowx"/>
  <outline>
    <contour>
      <point x="793" y="700" type="line"/>
      <point x="700" y="700" type="line"/>
      <point x="447" y="245" type="line"/>
      <point x="193" y="700" type="line"/>
      <point x="98" y="700" type="line"/>
      <point x="98" y="0" type="line"/>
      <point x="159" y="0" type="line"/>
      <point x="159" y="642" type="line"/>
      <point x="416" y="187" type="line"/>
      <point x="474" y="187" type="line"/>
      <point x="732" y="647" type="line"/>
      <point x="732" y="0" type="line"/>
      <point x="793" y="0" type="line"/>
    </contour>
  </outline>
</glyph>
<glyph name="T" format="2">
  <advance width="714"/>
  <unicode hex="0054"/>
  <anchor x="356" y="730" name="aboveUC"/>
  <anchor x="356" y="-30" name="below"/>
  <anchor x="356" y="-10" name="belowcedilla"/>
  <outline>
    <contour>
      <point x="45" y="649" type="line"/>
      <point x="326" y="649" type="line"/>
      <point x="326" y="0" type="line"/>
      <point x="388" y="0" type="line"/>
      <point x="388" y="649" type="line"/>
      <point x="669" y="649" type="line"/>
      <point x="669" y="700" type="line"/>
      <point x="45" y="700" type="line"/>
    </contour>
  </outline>
</glyph>
<glyph name="V" format="2">
  <advance width="763"/>
  <unicode hex="0056"/>
  <anchor x="382" y="-30" name="below"/>
  <outline>
    <contour>
      <point x="38" y="700" type="line"/>
      <point x="344" y="-4" type="line"/>
      <point x="419" y="-4" type="line"/>
      <point x="725" y="700" type="line"/>
      <point x="660" y="700" type="line"/>
      <point x="384" y="54" type="line"/>
      <point x="106" y="700" type="line"/>
    </contour>
  </outline>
</glyph>
<glyph name="X" format="2">
  <advance width="718"/>
  <unicode hex="0058"/>
  <anchor x="358" y="730" name="aboveUC"/>
  <anchor x="358" y="696" name="aboveUCx"/>
  <anchor x="358" y="-30" name="below"/>
  <anchor x="358" y="4" name="belowx"/>
  <outline>
    <contour>
      <point x="40" y="0" type="line"/>
      <point x="111" y="0" type="line"/>
      <point x="355" y="319" type="line"/>
      <point x="599" y="0" type="line"/>
      <point x="678" y="0" type="line"/>
      <point x="395" y="363" type="line"/>
      <point x="658" y="700" type="line"/>
      <point x="584" y="700" type="line"/>
      <point x="358" y="403" type="line"/>
      <point x="132" y="700" type="line"/>
      <point x="55" y="700" type="line"/>
      <point x="318" y="360" type="line"/>
    </contour>
  </outline>
</glyph>
<glyph name="Y" format="2">
  <advance width="698"/>
  <unicode hex="0059"/>
  <anchor x="349" y="730" name="aboveUC"/>
  <anchor x="349" y="696" name="aboveUCx"/>
  <anchor x="349" y="-30" name="below"/>
  <outline>
    <contour>
      <point x="676" y="700" type="line"/>
      <point x="601" y="700" type="line"/>
      <point x="351" y="343" type="line"/>
      <point x="100" y="700" type="line"/>
      <point x="22" y="700" type="line"/>
      <point x="318" y="288" type="line"/>
      <point x="318" y="0" type="line"/>
      <point x="380" y="0" type="line"/>
      <point x="380" y="289" type="line"/>
    </contour>
  </outline>
</glyph>
<glyph name="bracketleft" format="2">
  <advance width="395"/>
  <unicode hex="005B"/>
  <outline>
    <contour>
      <point x="117" y="-121" type="line"/>
      <point x="354" y="-121" type="line"/>
      <point x="354" y="-70" type="line"/>
      <point x="178" y="-70" type="line"/>
      <point x="178" y="770" type="line"/>
      <point x="354" y="770" type="line"/>
      <point x="354" y="821" type="line"/>
      <point x="117" y="821" type="line"/>
    </contour>
  </outline>
</glyph>
<glyph name="bracketright" format="2">
  <advance width="395"/>
  <unicode hex="005D"/>
  <outline>
    <contour>
      <point x="41" y="770" type="line"/>
      <point x="217" y="770" type="line"/>
      <point x="217" y="-70" type="line"/>
      <point x="41" y="-70" type="line"/>
      <point x="41" y="-121" type="line"/>
      <point x="278" y="-121" type="line"/>
      <point x="278" y="821" type="line"/>
      <point x="41" y="821" type="line"/>
    </contour>
  </outline>
</glyph>
<glyph name="c" format="2">
  <advance width="559"/>
  <unicode hex="0063"/>
  <anchor x="281" y="-10" name="belowcedilla"/>
  <anchor x="299" y="474" name="aboveLCx"/>
  <anchor x="296" y="-30" name="below"/>
  <anchor x="299" y="506" name="aboveLC"/>
  <outline>
    <contour>
      <point x="295" y="-17" type="curve" smooth="yes"/>
      <point x="393" y="-17"/>
      <point x="470" y="34"/>
      <point x="508" y="115" type="curve"/>
      <point x="463" y="137" type="line"/>
      <point x="427" y="69"/>
      <point x="363" y="32"/>
      <point x="297" y="32" type="curve" smooth="yes"/>
      <point x="191" y="32"/>
      <point x="113" y="124"/>
      <point x="113" y="236" type="curve" smooth="yes"/>
      <point x="113" y="351"/>
      <point x="193" y="444"/>
      <point x="296" y="444" type="curve" smooth="yes"/>
      <point x="366" y="444"/>
      <point x="422" y="410"/>
      <point x="455" y="334" type="curve"/>
      <point x="503" y="360" type="line"/>
      <point x="465" y="447"/>
      <point x="397" y="493"/>
      <point x="298" y="493" type="curve" smooth="yes"/>
      <point x="160" y="493"/>
      <point x="53" y="381"/>
      <point x="53" y="238" type="curve" smooth="yes"/>
      <point x="53" y="82"/>
      <point x="157" y="-17"/>
    </contour>
  </outline>
</glyph>
<glyph name="e" format="2">
  <advance width="571"/>
  <unicode hex="0065"/>
  <anchor x="292" y="-30" name="below"/>
  <anchor x="379" y="-10" name="belowogonek"/>
  <anchor x="292" y="474" name="aboveLCx"/>
  <anchor x="292" y="506" name="aboveLC"/>
  <outline>
    <contour>
      <point x="294" y="32" type="curve" smooth="yes"/>
      <point x="200" y="32"/>
      <point x="120" y="105"/>
      <point x="113" y="221" type="curve"/>
      <point x="516" y="221" type="line"/>
      <point x="517" y="227"/>
      <point x="518" y="235"/>
      <point x="518" y="245" type="curve" smooth="yes"/>
      <point x="518" y="403"/>
      <point x="417" y="493"/>
      <point x="292" y="493" type="curve" smooth="yes"/>
      <point x="162" y="493"/>
      <point x="53" y="384"/>
      <point x="53" y="239" type="curve" smooth="yes"/>
      <point x="53" y="87"/>
      <point x="150" y="-17"/>
      <point x="290" y="-17" type="curve" smooth="yes"/>
      <point x="381" y="-17"/>
      <point x="448" y="17"/>
      <point x="503" y="84" type="curve"/>
      <point x="465" y="116" type="line"/>
      <point x="414" y="56"/>
      <point x="358" y="32"/>
    </contour>
    <contour>
      <point x="292" y="444" type="curve" smooth="yes"/>
      <point x="377" y="444"/>
      <point x="448" y="383"/>
      <point x="458" y="267" type="curve"/>
      <point x="113" y="267" type="line"/>
      <point x="125" y="376"/>
      <point x="204" y="444"/>
    </contour>
  </outline>
</glyph>
<glyph name="f" format="2">
  <advance width="353"/>
  <unicode hex="0066"/>
  <outline>
    <contour>
      <point x="32" y="427" type="line"/>
      <point x="128" y="427" type="line"/>
      <point x="128" y="0" type="line"/>
      <point x="187" y="0" type="line"/>
      <point x="187" y="427" type="line"/>
      <point x="329" y="427" type="line"/>
      <point x="329" y="476" type="line"/>
      <point x="187" y="476" type="line"/>
      <point x="187" y="587" type="line" smooth="yes"/>
      <point x="187" y="655"/>
      <point x="222" y="681"/>
      <point x="275" y="681" type="curve" smooth="yes"/>
      <point x="329" y="681" type="line"/>
      <point x="329" y="730" type="line"/>
      <point x="268" y="730" type="line" smooth="yes"/>
      <point x="178" y="730"/>
      <point x="128" y="682"/>
      <point x="128" y="590" type="curve" smooth="yes"/>
      <point x="128" y="476" type="line"/>
      <point x="32" y="476" type="line"/>
    </contour>
  </outline>
</glyph>
<glyph name="g" format="2">
  <advance width="615"/>
  <unicode hex="0067"/>
  <anchor x="308" y="506" name="aboveLC"/>
  <anchor x="308" y="476" name="aboveLCx"/>
  <outline>
    <contour>
      <point x="477" y="48" type="line" smooth="yes"/>
      <point x="477" y="-87"/>
      <point x="416" y="-161"/>
      <point x="266" y="-161" type="curve" smooth="yes"/>
      <point x="171" y="-161" type="line"/>
      <point x="171" y="-210" type="line"/>
      <point x="262" y="-210" type="line" smooth="yes"/>
      <point x="457" y="-210"/>
      <point x="536" y="-119"/>
      <point x="536" y="41" type="curve" smooth="yes"/>
      <point x="536" y="476" type="line"/>
      <point x="477" y="476" type="line"/>
      <point x="477" y="370" type="line"/>
      <point x="439" y="439"/>
      <point x="370" y="488"/>
      <point x="287" y="488" type="curve" smooth="yes"/>
      <point x="164" y="488"/>
      <point x="53" y="395"/>
      <point x="53" y="245" type="curve" smooth="yes"/>
      <point x="53" y="96"/>
      <point x="164" y="4"/>
      <point x="282" y="4" type="curve" smooth="yes"/>
      <point x="369" y="4"/>
      <point x="439" y="53"/>
      <point x="477" y="123" type="curve"/>
    </contour>
    <contour>
      <point x="480" y="244" type="curve" smooth="yes"/>
      <point x="480" y="135"/>
      <point x="392" y="53"/>
      <point x="294" y="53" type="curve" smooth="yes"/>
      <point x="191" y="53"/>
      <point x="113" y="126"/>
      <point x="113" y="246" type="curve" smooth="yes"/>
      <point x="113" y="369"/>
      <point x="191" y="439"/>
      <point x="294" y="439" type="curve" smooth="yes"/>
      <point x="391" y="439"/>
      <point x="480" y="354"/>
    </contour>
  </outline>
</glyph>
<glyph name="h" format="2">
  <advance width="579"/>
  <unicode hex="0068"/>
  <anchor x="290" y="-30" name="below"/>
  <anchor x="290" y="0" name="belowx"/>
  <anchor x="109" y="-10" name="belowcedilla"/>
  <anchor x="109" y="760" name="aboveLC"/>
  <anchor x="109" y="696" name="aboveLCx"/>
  <outline>
    <contour>
      <point x="138" y="730" type="line"/>
      <point x="79" y="730" type="line"/>
      <point x="79" y="0" type="line"/>
      <point x="138" y="0" type="line"/>
      <point x="138" y="229" type="line" smooth="yes"/>
      <point x="138" y="351"/>
      <point x="206" y="440"/>
      <point x="307" y="440" type="curve" smooth="yes"/>
      <point x="395" y="440"/>
      <point x="443" y="378"/>
      <point x="443" y="288" type="curve" smooth="yes"/>
      <point x="443" y="0" type="line"/>
      <point x="502" y="0" type="line"/>
      <point x="502" y="289" type="line" smooth="yes"/>
      <point x="502" y="406"/>
      <point x="435" y="488"/>
      <point x="319" y="488" type="curve" smooth="yes"/>
      <point x="236" y="488"/>
      <point x="170" y="442"/>
      <point x="138" y="367" type="curve"/>
    </contour>
  </outline>
</glyph>
<glyph name="i" format="2">
  <advance width="227"/>
  <unicode hex="0069"/>
  <anchor x="114" y="-30" name="below"/>
  <anchor x="114" y="-10" name="belowogonek"/>
  <outline>
    <contour>
      <point x="149" y="679" type="line"/>
      <point x="78" y="679" type="line"/>
      <point x="78" y="608" type="line"/>
      <point x="149" y="608" type="line"/>
    </contour>
    <contour>
      <point x="84" y="476" type="line"/>
      <point x="84" y="0" type="line"/>
      <point x="143" y="0" type="line"/>
      <point x="143" y="476" type="line"/>
    </contour>
  </outline>
</glyph>
<glyph name="l" format="2">
  <advance width="227"/>
  <unicode hex="006C"/>
  <anchor x="114" y="-30" name="below"/>
  <anchor x="214" y="730" name="topright"/>
  <anchor x="114" y="760" name="aboveLC"/>
  <anchor x="114" y="728" name="aboveLCx"/>
  <outline>
    <contour>
      <point x="143" y="730" type="line"/>
      <point x="84" y="730" type="line"/>
      <point x="84" y="0" type="line"/>
      <point x="143" y="0" type="line"/>
    </contour>
  </outline>
</glyph>
<glyph name="r" format="2">
  <advance width="358"/>
  <unicode hex="0072"/>
  <guideline x="108" identifier="CLmzBqbu6e"/>
  <anchor x="201" y="506" name="aboveLC"/>
  <anchor x="113" y="-30" name="below"/>
  <outline>
    <contour>
      <point x="138" y="476" type="line"/>
      <point x="79" y="476" type="line"/>
      <point x="79" y="0" type="line"/>
      <point x="138" y="0" type="line"/>
      <point x="138" y="222" type="line" smooth="yes"/>
      <point x="138" y="356"/>
      <point x="199" y="421"/>
      <point x="322" y="421" type="curve" smooth="yes"/>
      <point x="353" y="421" type="line"/>
      <point x="353" y="479" type="line"/>
      <point x="321" y="479" type="line" smooth="yes"/>
      <point x="236" y="479"/>
      <point x="168" y="438"/>
      <point x="138" y="361" type="curve"/>
    </contour>
  </outline>
</glyph>
<glyph name="s" format="2">
  <advance width="501"/>
  <unicode hex="0073"/>
  <guideline x="256" y="213" angle="355.5074185200847" identifier="MYhE05PKT0"/>
  <anchor x="256" y="506" name="aboveLC"/>
  <anchor x="251" y="-30" name="below"/>
  <anchor x="256" y="-10" name="belowcedilla"/>
  <anchor x="256" y="476" name="aboveLCx"/>
  <outline>
    <contour>
      <point x="450" y="129" type="curve" smooth="yes"/>
      <point x="450" y="216"/>
      <point x="390" y="261"/>
      <point x="250" y="272" type="curve" smooth="yes"/>
      <point x="150" y="280"/>
      <point x="121" y="312"/>
      <point x="121" y="357" type="curve" smooth="yes"/>
      <point x="121" y="400"/>
      <point x="166" y="442"/>
      <point x="245" y="442" type="curve" smooth="yes"/>
      <point x="299" y="442"/>
      <point x="347" y="423"/>
      <point x="409" y="378" type="curve"/>
      <point x="438" y="423" type="line"/>
      <point x="378" y="468"/>
      <point x="321" y="490"/>
      <point x="245" y="490" type="curve" smooth="yes"/>
      <point x="135" y="490"/>
      <point x="63" y="425"/>
      <point x="63" y="357" type="curve" smooth="yes"/>
      <point x="63" y="273"/>
      <point x="118" y="227"/>
      <point x="248" y="217" type="curve" smooth="yes"/>
      <point x="360" y="208"/>
      <point x="392" y="177"/>
      <point x="392" y="129" type="curve" smooth="yes"/>
      <point x="392" y="77"/>
      <point x="343" y="34"/>
      <point x="249" y="34" type="curve" smooth="yes"/>
      <point x="194" y="34"/>
      <point x="136" y="56"/>
      <point x="76" y="100" type="curve"/>
      <point x="45" y="56" type="line"/>
      <point x="101" y="11"/>
      <point x="172" y="-14"/>
      <point x="249" y="-14" type="curve" smooth="yes"/>
      <point x="373" y="-14"/>
      <point x="450" y="52"/>
    </contour>
  </outline>
</glyph>
<glyph name="v" format="2">
  <advance width="518"/>
  <unicode hex="0076"/>
  <anchor x="258" y="-30" name="below"/>
  <outline>
    <contour>
      <point x="29" y="476" type="line"/>
      <point x="226" y="-4" type="line"/>
      <point x="294" y="-4" type="line"/>
      <point x="489" y="476" type="line"/>
      <point x="429" y="476" type="line"/>
      <point x="261" y="49" type="line"/>
      <point x="92" y="476" type="line"/>
    </contour>
  </outline>
</glyph>
<glyph name="bar" format="2">
  <advance width="312"/>
  <unicode hex="007C"/>
  <outline>
    <contour>
      <point x="184" y="821" type="line"/>
      <point x="128" y="821" type="line"/>
      <point x="128" y="-121" type="line"/>
      <point x="184" y="-121" type="line"/>
    </contour>
  </outline>
</glyph>
<glyph name="braceright" format="2">
  <advance width="477"/>
  <unicode hex="007D"/>
  <outline>
    <contour>
      <point x="425" y="318" type="curve"/>
      <point x="425" y="382" type="line"/>
      <point x="250" y="420"/>
      <point x="220" y="447"/>
      <point x="220" y="478" type="curve" smooth="yes"/>
      <point x="220" y="490"/>
      <point x="228" y="504"/>
      <point x="269" y="556" type="curve" smooth="yes"/>
      <point x="333" y="638"/>
      <point x="345" y="666"/>
      <point x="345" y="701" type="curve" smooth="yes"/>
      <point x="345" y="769"/>
      <point x="294" y="821"/>
      <point x="184" y="821" type="curve" smooth="yes"/>
      <point x="41" y="821" type="line"/>
      <point x="41" y="770" type="line"/>
      <point x="193" y="770" type="line" smooth="yes"/>
      <point x="253" y="770"/>
      <point x="283" y="743"/>
      <point x="283" y="708" type="curve" smooth="yes"/>
      <point x="283" y="682"/>
      <point x="274" y="662"/>
      <point x="223" y="596" type="curve" smooth="yes"/>
      <point x="171" y="530"/>
      <point x="158" y="501"/>
      <point x="158" y="474" type="curve" smooth="yes"/>
      <point x="158" y="430"/>
      <point x="190" y="381"/>
      <point x="380" y="351" type="curve"/>
      <point x="380" y="349" type="line"/>
      <point x="190" y="319"/>
      <point x="158" y="270"/>
      <point x="158" y="226" type="curve" smooth="yes"/>
      <point x="158" y="199"/>
      <point x="171" y="170"/>
      <point x="223" y="104" type="curve" smooth="yes"/>
      <point x="274" y="38"/>
      <point x="283" y="18"/>
      <point x="283" y="-8" type="curve" smooth="yes"/>
      <point x="283" y="-43"/>
      <point x="253" y="-70"/>
      <point x="193" y="-70" type="curve" smooth="yes"/>
      <point x="41" y="-70" type="line"/>
      <point x="41" y="-121" type="line"/>
      <point x="184" y="-121" type="line" smooth="yes"/>
      <point x="294" y="-121"/>
      <point x="345" y="-69"/>
      <point x="345" y="-1" type="curve" smooth="yes"/>
      <point x="345" y="34"/>
      <point x="333" y="62"/>
      <point x="269" y="144" type="curve" smooth="yes"/>
      <point x="228" y="196"/>
      <point x="220" y="210"/>
      <point x="220" y="222" type="curve" smooth="yes"/>
      <point x="220" y="253"/>
      <point x="250" y="280"/>
    </contour>
  </outline>
</glyph>
<glyph name="cent" format="2">
  <advance width="569"/>
  <unicode hex="00A2"/>
  <outline>
    <contour>
      <point x="273" y="-121" type="line"/>
      <point x="330" y="-121" type="line"/>
      <point x="330" y="1" type="line"/>
      <point x="416" y="9"/>
      <point x="483" y="58"/>
      <point x="518" y="132" type="curve"/>
      <point x="473" y="154" type="line"/>
      <point x="440" y="92"/>
      <point x="384" y="56"/>
      <point x="324" y="50" type="curve"/>
      <point x="324" y="483" type="line"/>
      <point x="386" y="478"/>
      <point x="435" y="443"/>
      <point x="465" y="374" type="curve"/>
      <point x="513" y="400" type="line"/>
      <point x="478" y="480"/>
      <point x="417" y="526"/>
      <point x="330" y="532" type="curve"/>
      <point x="330" y="640" type="line"/>
      <point x="273" y="640" type="line"/>
      <point x="273" y="531" type="line"/>
      <point x="146" y="513"/>
      <point x="53" y="403"/>
      <point x="53" y="264" type="curve" smooth="yes"/>
      <point x="53" y="114"/>
      <point x="145" y="16"/>
      <point x="273" y="2" type="curve"/>
    </contour>
    <contour>
      <point x="113" y="262" type="curve" smooth="yes"/>
      <point x="113" y="375"/>
      <point x="183" y="467"/>
      <point x="279" y="482" type="curve"/>
      <point x="279" y="51" type="line"/>
      <point x="182" y="66"/>
      <point x="113" y="155"/>
    </contour>
  </outline>
</glyph>
<glyph name="copyright" format="2">
  <advance width="941"/>
  <unicode hex="00A9"/>
  <outline>
    <contour>
      <point x="471" y="750" type="curve" smooth="yes"/>
      <point x="244" y="750"/>
      <point x="66" y="575"/>
      <point x="66" y="349" type="curve" smooth="yes"/>
      <point x="66" y="123"/>
      <point x="242" y="-50"/>
      <point x="471" y="-50" type="curve" smooth="yes"/>
      <point x="698" y="-50"/>
      <point x="875" y="125"/>
      <point x="875" y="351" type="curve" smooth="yes"/>
      <point x="875" y="577"/>
      <point x="700" y="750"/>
    </contour>
    <contour>
      <point x="471" y="-11" type="curve" smooth="yes"/>
      <point x="269" y="-11"/>
      <point x="110" y="147"/>
      <point x="110" y="351" type="curve" smooth="yes"/>
      <point x="110" y="555"/>
      <point x="266" y="711"/>
      <point x="471" y="711" type="curve" smooth="yes"/>
      <point x="673" y="711"/>
      <point x="831" y="554"/>
      <point x="831" y="349" type="curve" smooth="yes"/>
      <point x="831" y="144"/>
      <point x="675" y="-11"/>
    </contour>
    <contour>
      <point x="476" y="174" type="curve" smooth="yes"/>
      <point x="388" y="174"/>
      <point x="320" y="250"/>
      <point x="320" y="351" type="curve" smooth="yes"/>
      <point x="320" y="451"/>
      <point x="388" y="526"/>
      <point x="479" y="526" type="curve" smooth="yes"/>
      <point x="535" y="526"/>
      <point x="578" y="502"/>
      <point x="610" y="446" type="curve"/>
      <point x="653" y="469" type="line"/>
      <point x="621" y="534"/>
      <point x="560" y="573"/>
      <point x="481" y="573" type="curve" smooth="yes"/>
      <point x="359" y="573"/>
      <point x="267" y="476"/>
      <point x="267" y="350" type="curve" smooth="yes"/>
      <point x="267" y="221"/>
      <point x="355" y="128"/>
      <point x="475" y="128" type="curve" smooth="yes"/>
      <point x="564" y="128"/>
      <point x="622" y="173"/>
      <point x="656" y="237" type="curve"/>
      <point x="615" y="256" type="line"/>
      <point x="583" y="199"/>
      <point x="537" y="174"/>
    </contour>
  </outline>
</glyph>
<glyph name="ordfeminine" format="2">
  <advance width="471"/>
  <unicode hex="00AA"/>
  <outline>
    <contour>
      <point x="347" y="359" type="line"/>
      <point x="398" y="359" type="line"/>
      <point x="398" y="567" type="line" smooth="yes"/>
      <point x="398" y="660"/>
      <point x="344" y="716"/>
      <point x="245" y="716" type="curve" smooth="yes"/>
      <point x="189" y="716"/>
      <point x="134" y="695"/>
      <point x="101" y="663" type="curve"/>
      <point x="125" y="629" type="line"/>
      <point x="157" y="657"/>
      <point x="204" y="673"/>
      <point x="241" y="673" type="curve" smooth="yes"/>
      <point x="307" y="673"/>
      <point x="346" y="643"/>
      <point x="347" y="570" type="curve"/>
      <point x="244" y="570" type="line" smooth="yes"/>
      <point x="112" y="570"/>
      <point x="68" y="524"/>
      <point x="68" y="461" type="curve" smooth="yes"/>
      <point x="68" y="394"/>
      <point x="125" y="352"/>
      <point x="200" y="352" type="curve" smooth="yes"/>
      <point x="268" y="352"/>
      <point x="321" y="388"/>
      <point x="347" y="431" type="curve"/>
    </contour>
    <contour>
      <point x="240" y="527" type="curve" smooth="yes"/>
      <point x="346" y="527" type="line"/>
      <point x="339" y="448"/>
      <point x="284" y="396"/>
      <point x="206" y="396" type="curve" smooth="yes"/>
      <point x="145" y="396"/>
      <point x="118" y="431"/>
      <point x="118" y="462" type="curve" smooth="yes"/>
      <point x="118" y="497"/>
      <point x="142" y="527"/>
    </contour>
    <contour>
      <point x="73" y="280" type="line"/>
      <point x="73" y="234" type="line"/>
      <point x="398" y="234" type="line"/>
      <point x="398" y="280" type="line"/>
    </contour>
  </outline>
</glyph>
<glyph name="registered" format="2">
  <advance width="622"/>
  <unicode hex="00AE"/>
  <guideline x="275" y="254" angle="0.0" identifier="NGPSii0IgX"/>
  <outline>
    <contour>
      <point x="55" y="469" type="curve" smooth="yes"/>
      <point x="55" y="330"/>
      <point x="164" y="224"/>
      <point x="311" y="224" type="curve" smooth="yes"/>
      <point x="456" y="224"/>
      <point x="567" y="331"/>
      <point x="567" y="470" type="curve" smooth="yes"/>
      <point x="567" y="612"/>
      <point x="457" y="716"/>
      <point x="311" y="716" type="curve" smooth="yes"/>
      <point x="165" y="716"/>
      <point x="55" y="610"/>
    </contour>
    <contour>
      <point x="311" y="257" type="curve" smooth="yes"/>
      <point x="189" y="257"/>
      <point x="92" y="349"/>
      <point x="92" y="470" type="curve" smooth="yes"/>
      <point x="92" y="592"/>
      <point x="186" y="682"/>
      <point x="311" y="682" type="curve" smooth="yes"/>
      <point x="436" y="682"/>
      <point x="531" y="591"/>
      <point x="531" y="469" type="curve" smooth="yes"/>
      <point x="531" y="348"/>
      <point x="436" y="257"/>
    </contour>
    <contour>
      <point x="269" y="357" type="line"/>
      <point x="269" y="448" type="line"/>
      <point x="303" y="448" type="line"/>
      <point x="369" y="357" type="line"/>
      <point x="412" y="357" type="line"/>
      <point x="343" y="451" type="line"/>
      <point x="384" y="460"/>
      <point x="408" y="485"/>
      <point x="408" y="520" type="curve" smooth="yes"/>
      <point x="408" y="567"/>
      <point x="374" y="596"/>
      <point x="314" y="596" type="curve" smooth="yes"/>
      <point x="232" y="596" type="line"/>
      <point x="232" y="357" type="line"/>
    </contour>
    <contour>
      <point x="313" y="561" type="line" smooth="yes"/>
      <point x="352" y="561"/>
      <point x="371" y="545"/>
      <point x="371" y="520" type="curve" smooth="yes"/>
      <point x="371" y="496"/>
      <point x="351" y="479"/>
      <point x="311" y="479" type="curve" smooth="yes"/>
      <point x="269" y="479" type="line"/>
      <point x="269" y="561" type="line"/>
    </contour>
  </outline>
</glyph>
<glyph name="degree" format="2">
  <advance width="490"/>
  <unicode hex="00B0"/>
  <outline>
    <contour>
      <point x="56" y="526" type="curve" smooth="yes"/>
      <point x="56" y="412"/>
      <point x="135" y="337"/>
      <point x="245" y="337" type="curve" smooth="yes"/>
      <point x="355" y="337"/>
      <point x="434" y="413"/>
      <point x="434" y="527" type="curve" smooth="yes"/>
      <point x="434" y="641"/>
      <point x="356" y="716"/>
      <point x="246" y="716" type="curve" smooth="yes"/>
      <point x="136" y="716"/>
      <point x="56" y="640"/>
    </contour>
    <contour>
      <point x="245" y="674" type="curve" smooth="yes"/>
      <point x="323" y="674"/>
      <point x="383" y="615"/>
      <point x="383" y="526" type="curve" smooth="yes"/>
      <point x="383" y="437"/>
      <point x="325" y="379"/>
      <point x="246" y="379" type="curve" smooth="yes"/>
      <point x="165" y="379"/>
      <point x="107" y="438"/>
      <point x="107" y="527" type="curve" smooth="yes"/>
      <point x="107" y="616"/>
      <point x="164" y="674"/>
    </contour>
  </outline>
</glyph>
<glyph name="plusminus" format="2">
  <advance width="600"/>
  <unicode hex="00B1"/>
  <outline>
    <contour>
      <point x="64" y="398" type="line"/>
      <point x="272" y="398" type="line"/>
      <point x="272" y="187" type="line"/>
      <point x="328" y="187" type="line"/>
      <point x="328" y="398" type="line"/>
      <point x="537" y="398" type="line"/>
      <point x="537" y="446" type="line"/>
      <point x="328" y="446" type="line"/>
      <point x="328" y="656" type="line"/>
      <point x="272" y="656" type="line"/>
      <point x="272" y="446" type="line"/>
      <point x="64" y="446" type="line"/>
    </contour>
    <contour>
      <point x="537" y="0" type="line"/>
      <point x="537" y="48" type="line"/>
      <point x="64" y="48" type="line"/>
      <point x="64" y="0" type="line"/>
    </contour>
  </outline>
</glyph>
<glyph name="one.sup" format="2">
  <advance width="239"/>
  <unicode hex="00B9"/>
  <outline>
    <contour>
      <point x="26" y="741" type="line"/>
      <point x="119" y="741" type="line"/>
      <point x="119" y="400" type="line"/>
      <point x="169" y="400" type="line"/>
      <point x="169" y="789" type="line"/>
      <point x="26" y="789" type="line"/>
    </contour>
  </outline>
</glyph>
<glyph name="ordmasculine" format="2">
  <advance width="484"/>
  <unicode hex="00BA"/>
  <outline>
    <contour>
      <point x="241" y="349" type="curve" smooth="yes"/>
      <point x="340" y="349"/>
      <point x="419" y="423"/>
      <point x="419" y="533" type="curve" smooth="yes"/>
      <point x="419" y="642"/>
      <point x="341" y="716"/>
      <point x="243" y="716" type="curve" smooth="yes"/>
      <point x="143" y="716"/>
      <point x="65" y="641"/>
      <point x="65" y="532" type="curve" smooth="yes"/>
      <point x="65" y="423"/>
      <point x="142" y="349"/>
    </contour>
    <contour>
      <point x="242" y="392" type="curve" smooth="yes"/>
      <point x="171" y="392"/>
      <point x="115" y="448"/>
      <point x="115" y="531" type="curve" smooth="yes"/>
      <point x="115" y="617"/>
      <point x="171" y="673"/>
      <point x="241" y="673" type="curve" smooth="yes"/>
      <point x="312" y="673"/>
      <point x="369" y="616"/>
      <point x="369" y="533" type="curve" smooth="yes"/>
      <point x="369" y="448"/>
      <point x="312" y="392"/>
    </contour>
    <contour>
      <point x="73" y="280" type="line"/>
      <point x="73" y="234" type="line"/>
      <point x="412" y="234" type="line"/>
      <point x="412" y="280" type="line"/>
    </contour>
  </outline>
</glyph>
<glyph name="Ccedilla" format="2">
  <advance width="771"/>
  <unicode hex="00C7"/>
  <outline>
    <contour>
      <point x="411" y="34" type="curve" smooth="yes"/>
      <point x="249" y="34"/>
      <point x="130" y="166"/>
      <point x="130" y="351" type="curve" smooth="yes"/>
      <point x="130" y="531"/>
      <point x="252" y="666"/>
      <point x="417" y="666" type="curve" smooth="yes"/>
      <point x="517" y="666"/>
      <point x="595" y="622"/>
      <point x="652" y="517" type="curve"/>
      <point x="702" y="545" type="line"/>
      <point x="650" y="652"/>
      <point x="549" y="717"/>
      <point x="419" y="717" type="curve" smooth="yes"/>
      <point x="219" y="717"/>
      <point x="67" y="557"/>
      <point x="67" y="349" type="curve" smooth="yes"/>
      <point x="67" y="145"/>
      <point x="195" y="0"/>
      <point x="377" y="-16" type="curve"/>
      <point x="351" y="-94" type="line"/>
      <point x="352" y="-96" type="line"/>
      <point x="371" y="-103" type="line"/>
      <point x="387" y="-97"/>
      <point x="398" y="-95"/>
      <point x="410" y="-95" type="curve" smooth="yes"/>
      <point x="440" y="-95"/>
      <point x="455" y="-109"/>
      <point x="455" y="-128" type="curve" smooth="yes"/>
      <point x="455" y="-148"/>
      <point x="441" y="-164"/>
      <point x="403" y="-164" type="curve" smooth="yes"/>
      <point x="384" y="-164"/>
      <point x="362" y="-159"/>
      <point x="337" y="-144" type="curve"/>
      <point x="317" y="-180" type="line"/>
      <point x="350" y="-198"/>
      <point x="373" y="-204"/>
      <point x="408" y="-204" type="curve" smooth="yes"/>
      <point x="463" y="-204"/>
      <point x="501" y="-169"/>
      <point x="501" y="-124" type="curve" smooth="yes"/>
      <point x="501" y="-87"/>
      <point x="476" y="-60"/>
      <point x="438" y="-60" type="curve" smooth="yes"/>
      <point x="423" y="-60"/>
      <point x="412" y="-62"/>
      <point x="401" y="-66" type="curve"/>
      <point x="418" y="-17" type="line"/>
      <point x="560" y="-14"/>
      <point x="654" y="58"/>
      <point x="706" y="161" type="curve"/>
      <point x="658" y="184" type="line"/>
      <point x="602" y="82"/>
      <point x="519" y="34"/>
    </contour>
  </outline>
</glyph>
<glyph name="Thorn" format="2">
  <advance width="688"/>
  <unicode hex="00DE"/>
  <outline>
    <contour>
      <point x="98" y="700" type="line"/>
      <point x="98" y="0" type="line"/>
      <point x="160" y="0" type="line"/>
      <point x="160" y="143" type="line"/>
      <point x="376" y="143" type="line" smooth="yes"/>
      <point x="534" y="143"/>
      <point x="633" y="228"/>
      <point x="633" y="353" type="curve" smooth="yes"/>
      <point x="633" y="476"/>
      <point x="546" y="558"/>
      <point x="393" y="558" type="curve" smooth="yes"/>
      <point x="160" y="558" type="line"/>
      <point x="160" y="700" type="line"/>
    </contour>
    <contour>
      <point x="390" y="507" type="line" smooth="yes"/>
      <point x="507" y="507"/>
      <point x="570" y="445"/>
      <point x="570" y="351" type="curve" smooth="yes"/>
      <point x="570" y="260"/>
      <point x="502" y="194"/>
      <point x="382" y="194" type="curve" smooth="yes"/>
      <point x="160" y="194" type="line"/>
      <point x="160" y="507" type="line"/>
    </contour>
  </outline>
</glyph>
<glyph name="ae" format="2">
  <advance width="928"/>
  <unicode hex="00E6"/>
  <outline>
    <contour>
      <point x="651" y="34" type="curve" smooth="yes"/>
      <point x="556" y="34"/>
      <point x="475" y="108"/>
      <point x="469" y="225" type="curve"/>
      <point x="873" y="225" type="line"/>
      <point x="874" y="231"/>
      <point x="875" y="239"/>
      <point x="875" y="249" type="curve" smooth="yes"/>
      <point x="875" y="403"/>
      <point x="775" y="491"/>
      <point x="652" y="491" type="curve" smooth="yes"/>
      <point x="564" y="491"/>
      <point x="486" y="437"/>
      <point x="448" y="355" type="curve"/>
      <point x="427" y="444"/>
      <point x="364" y="491"/>
      <point x="269" y="491" type="curve" smooth="yes"/>
      <point x="188" y="491"/>
      <point x="129" y="462"/>
      <point x="77" y="411" type="curve"/>
      <point x="111" y="373" type="line"/>
      <point x="156" y="417"/>
      <point x="210" y="442"/>
      <point x="261" y="442" type="curve" smooth="yes"/>
      <point x="355" y="442"/>
      <point x="410" y="386"/>
      <point x="410" y="282" type="curve" smooth="yes"/>
      <point x="410" y="271" type="line"/>
      <point x="254" y="271" type="line" smooth="yes"/>
      <point x="100" y="271"/>
      <point x="38" y="216"/>
      <point x="38" y="128" type="curve" smooth="yes"/>
      <point x="38" y="40"/>
      <point x="114" y="-15"/>
      <point x="217" y="-15" type="curve" smooth="yes"/>
      <point x="316" y="-15"/>
      <point x="401" y="43"/>
      <point x="437" y="143" type="curve"/>
      <point x="467" y="46"/>
      <point x="545" y="-15"/>
      <point x="647" y="-15" type="curve" smooth="yes"/>
      <point x="738" y="-15"/>
      <point x="805" y="19"/>
      <point x="860" y="86" type="curve"/>
      <point x="822" y="118" type="line"/>
      <point x="771" y="58"/>
      <point x="715" y="34"/>
    </contour>
    <contour>
      <point x="649" y="442" type="curve" smooth="yes"/>
      <point x="733" y="442"/>
      <point x="805" y="383"/>
      <point x="815" y="271" type="curve"/>
      <point x="471" y="271" type="line"/>
      <point x="484" y="376"/>
      <point x="562" y="442"/>
    </contour>
    <contour>
      <point x="257" y="225" type="curve" smooth="yes"/>
      <point x="410" y="225" type="line"/>
      <point x="403" y="110"/>
      <point x="318" y="34"/>
      <point x="218" y="34" type="curve" smooth="yes"/>
      <point x="142" y="34"/>
      <point x="97" y="80"/>
      <point x="97" y="130" type="curve" smooth="yes"/>
      <point x="97" y="192"/>
      <point x="139" y="225"/>
    </contour>
  </outline>
</glyph>
<glyph name="ccedilla" format="2">
  <advance width="559"/>
  <unicode hex="00E7"/>
  <outline>
    <contour>
      <point x="380" y="-124" type="curve" smooth="yes"/>
      <point x="380" y="-87"/>
      <point x="355" y="-60"/>
      <point x="317" y="-60" type="curve" smooth="yes"/>
      <point x="302" y="-60"/>
      <point x="291" y="-62"/>
      <point x="280" y="-66" type="curve"/>
      <point x="297" y="-17" type="line"/>
      <point x="393" y="-17"/>
      <point x="470" y="34"/>
      <point x="508" y="115" type="curve"/>
      <point x="463" y="137" type="line"/>
      <point x="427" y="69"/>
      <point x="363" y="32"/>
      <point x="297" y="32" type="curve" smooth="yes"/>
      <point x="191" y="32"/>
      <point x="113" y="124"/>
      <point x="113" y="236" type="curve" smooth="yes"/>
      <point x="113" y="351"/>
      <point x="193" y="444"/>
      <point x="296" y="444" type="curve" smooth="yes"/>
      <point x="366" y="444"/>
      <point x="422" y="410"/>
      <point x="455" y="334" type="curve"/>
      <point x="503" y="360" type="line"/>
      <point x="465" y="447"/>
      <point x="397" y="493"/>
      <point x="298" y="493" type="curve" smooth="yes"/>
      <point x="160" y="493"/>
      <point x="53" y="381"/>
      <point x="53" y="238" type="curve" smooth="yes"/>
      <point x="53" y="97"/>
      <point x="138" y="2"/>
      <point x="257" y="-14" type="curve"/>
      <point x="230" y="-94" type="line"/>
      <point x="231" y="-96" type="line"/>
      <point x="250" y="-103" type="line"/>
      <point x="266" y="-97"/>
      <point x="277" y="-95"/>
      <point x="289" y="-95" type="curve" smooth="yes"/>
      <point x="319" y="-95"/>
      <point x="334" y="-109"/>
      <point x="334" y="-128" type="curve" smooth="yes"/>
      <point x="334" y="-148"/>
      <point x="320" y="-164"/>
      <point x="282" y="-164" type="curve" smooth="yes"/>
      <point x="263" y="-164"/>
      <point x="241" y="-159"/>
      <point x="216" y="-144" type="curve"/>
      <point x="196" y="-180" type="line"/>
      <point x="229" y="-198"/>
      <point x="252" y="-204"/>
      <point x="287" y="-204" type="curve" smooth="yes"/>
      <point x="342" y="-204"/>
      <point x="380" y="-169"/>
    </contour>
  </outline>
</glyph>
<glyph name="oe" format="2">
  <advance width="998"/>
  <unicode hex="0153"/>
  <outline>
    <contour>
      <point x="295" y="-15" type="curve" smooth="yes"/>
      <point x="394" y="-15"/>
      <point x="475" y="48"/>
      <point x="509" y="141" type="curve"/>
      <point x="539" y="45"/>
      <point x="616" y="-15"/>
      <point x="717" y="-15" type="curve" smooth="yes"/>
      <point x="808" y="-15"/>
      <point x="875" y="19"/>
      <point x="930" y="86" type="curve"/>
      <point x="892" y="118" type="line"/>
      <point x="841" y="58"/>
      <point x="785" y="34"/>
      <point x="721" y="34" type="curve" smooth="yes"/>
      <point x="627" y="34"/>
      <point x="547" y="106"/>
      <point x="540" y="221" type="curve"/>
      <point x="943" y="221" type="line"/>
      <point x="944" y="227"/>
      <point x="945" y="235"/>
      <point x="945" y="245" type="curve" smooth="yes"/>
      <point x="945" y="402"/>
      <point x="844" y="491"/>
      <point x="719" y="491" type="curve" smooth="yes"/>
      <point x="624" y="491"/>
      <point x="542" y="427"/>
      <point x="509" y="332" type="curve"/>
      <point x="477" y="427"/>
      <point x="396" y="491"/>
      <point x="298" y="491" type="curve" smooth="yes"/>
      <point x="160" y="491"/>
      <point x="53" y="381"/>
      <point x="53" y="240" type="curve" smooth="yes"/>
      <point x="53" y="95"/>
      <point x="158" y="-15"/>
    </contour>
    <contour>
      <point x="297" y="34" type="curve" smooth="yes"/>
      <point x="193" y="34"/>
      <point x="113" y="125"/>
      <point x="113" y="238" type="curve" smooth="yes"/>
      <point x="113" y="354"/>
      <point x="193" y="442"/>
      <point x="296" y="442" type="curve" smooth="yes"/>
      <point x="400" y="442"/>
      <point x="480" y="351"/>
      <point x="480" y="238" type="curve" smooth="yes"/>
      <point x="480" y="122"/>
      <point x="400" y="34"/>
    </contour>
    <contour>
      <point x="719" y="442" type="curve" smooth="yes"/>
      <point x="804" y="442"/>
      <point x="875" y="382"/>
      <point x="885" y="267" type="curve"/>
      <point x="541" y="267" type="line"/>
      <point x="552" y="375"/>
      <point x="631" y="442"/>
    </contour>
  </outline>
</glyph>
<glyph name="dieresiscmb" format="2">
  <unicode hex="0308"/>
  <anchor x="0" y="506" name="_aboveLC"/>
  <anchor x="0" y="486" name="_aboveLCx"/>
  <outline>
    <contour>
      <point x="-40" y="618" type="line"/>
      <point x="-106" y="618" type="line"/>
      <point x="-106" y="554" type="line"/>
      <point x="-40" y="554" type="line"/>
    </contour>
    <contour>
      <point x="106" y="618" type="line"/>
      <point x="40" y="618" type="line"/>
      <point x="40" y="554" type="line"/>
      <point x="106" y="554" type="line"/>
    </contour>
  </outline>
</glyph>
<glyph name="caroncmb" format="2">
  <unicode hex="030C"/>
  <anchor x="0" y="506" name="_aboveLC"/>
  <anchor x="0" y="486" name="_aboveLCx"/>
  <outline>
    <contour>
      <point x="130" y="640" type="line"/>
      <point x="106" y="669" type="line"/>
      <point x="0" y="596" type="line"/>
      <point x="-106" y="669" type="line"/>
      <point x="-130" y="640" type="line"/>
      <point x="-17" y="544" type="line"/>
      <point x="17" y="544" type="line"/>
    </contour>
  </outline>
</glyph>
<glyph name="semicolon-ar" format="2">
  <advance width="252"/>
  <unicode hex="061B"/>
  <outline>
    <contour>
      <point x="205" y="450" type="line"/>
      <point x="164" y="450" type="line"/>
      <point x="64" y="244" type="line"/>
      <point x="138" y="244" type="line"/>
    </contour>
    <contour>
      <point x="150" y="84" type="line"/>
      <point x="68" y="84" type="line"/>
      <point x="68" y="0" type="line"/>
      <point x="150" y="0" type="line"/>
    </contour>
  </outline>
</glyph>
<glyph name="question-ar" format="2">
  <advance width="498"/>
  <unicode hex="061F"/>
  <outline>
    <contour>
      <point x="244" y="194" type="curve"/>
      <point x="284" y="194" type="line"/>
      <point x="292" y="255"/>
      <point x="295" y="280"/>
      <point x="295" y="292" type="curve" smooth="yes"/>
      <point x="295" y="319"/>
      <point x="289" y="333"/>
      <point x="250" y="363" type="curve" smooth="yes"/>
      <point x="172" y="423" type="line" smooth="yes"/>
      <point x="115" y="467"/>
      <point x="95" y="507"/>
      <point x="95" y="546" type="curve" smooth="yes"/>
      <point x="95" y="620"/>
      <point x="160" y="665"/>
      <point x="236" y="665" type="curve" smooth="yes"/>
      <point x="335" y="665"/>
      <point x="405" y="603"/>
      <point x="409" y="504" type="curve"/>
      <point x="470" y="504" type="line"/>
      <point x="466" y="628"/>
      <point x="378" y="716"/>
      <point x="235" y="716" type="curve" smooth="yes"/>
      <point x="109" y="716"/>
      <point x="32" y="650"/>
      <point x="32" y="539" type="curve" smooth="yes"/>
      <point x="32" y="479"/>
      <point x="58" y="439"/>
      <point x="135" y="380" type="curve" smooth="yes"/>
      <point x="206" y="325" type="line" smooth="yes"/>
      <point x="229" y="307"/>
      <point x="235" y="295"/>
    </contour>
    <contour>
      <point x="224" y="84" type="line"/>
      <point x="224" y="0" type="line"/>
      <point x="306" y="0" type="line"/>
      <point x="306" y="84" type="line"/>
    </contour>
  </outline>
</glyph>
<glyph name="hamza-ar" format="2">
  <advance width="482"/>
  <unicode hex="0621"/>
  <anchor x="263" y="450" name="top"/>
  <anchor x="241" y="0" name="bottom"/>
  <outline>
    <contour>
      <point x="20" y="54" type="line"/>
      <point x="20" y="0" type="line"/>
      <point x="452" y="0" type="line"/>
      <point x="452" y="54" type="line"/>
      <point x="204" y="54" type="line"/>
      <point x="151" y="105"/>
      <point x="134" y="154"/>
      <point x="134" y="198" type="curve" smooth="yes"/>
      <point x="134" y="278"/>
      <point x="186" y="330"/>
      <point x="263" y="330" type="curve" smooth="yes"/>
      <point x="318" y="330"/>
      <point x="367" y="298"/>
      <point x="389" y="246" type="curve"/>
      <point x="441" y="268" type="line"/>
      <point x="409" y="339"/>
      <point x="339" y="384"/>
      <point x="263" y="384" type="curve" smooth="yes"/>
      <point x="154" y="384"/>
      <point x="76" y="306"/>
      <point x="76" y="198" type="curve" smooth="yes"/>
      <point x="76" y="148"/>
      <point x="95" y="98"/>
      <point x="128" y="54" type="curve"/>
    </contour>
  </outline>
</glyph>
<glyph name="alef-ar" format="2">
  <advance width="238"/>
  <unicode hex="0627"/>
  <anchor x="119" y="690" name="top"/>
  <anchor x="119" y="0" name="bottom"/>
  <outline>
    <contour>
      <point x="148" y="730" type="line"/>
      <point x="90" y="730" type="line"/>
      <point x="90" y="0" type="line"/>
      <point x="148" y="0" type="line"/>
    </contour>
  </outline>
</glyph>
<glyph name="jeem-ar" format="2">
  <advance width="636"/>
  <unicode hex="062C"/>
  <anchor x="329" y="460" name="top"/>
  <anchor x="308" y="-288" name="bottom"/>
  <outline>
    <contour>
      <point x="329" y="460" type="curve" smooth="yes"/>
      <point x="232" y="460"/>
      <point x="145" y="407"/>
      <point x="104" y="322" type="curve"/>
      <point x="154" y="298" type="line"/>
      <point x="186" y="363"/>
      <point x="253" y="404"/>
      <point x="329" y="404" type="curve" smooth="yes"/>
      <point x="445" y="404"/>
      <point x="510" y="331"/>
      <point x="510" y="200" type="curve" smooth="yes"/>
      <point x="510" y="54" type="line"/>
      <point x="208" y="54" type="line" smooth="yes"/>
      <point x="96" y="54"/>
      <point x="22" y="-14"/>
      <point x="22" y="-119" type="curve" smooth="yes"/>
      <point x="22" y="-221"/>
      <point x="96" y="-288"/>
      <point x="215" y="-288" type="curve" smooth="yes"/>
      <point x="324" y="-288" type="line"/>
      <point x="324" y="-234" type="line"/>
      <point x="222" y="-234" type="line" smooth="yes"/>
      <point x="126" y="-234"/>
      <point x="78" y="-189"/>
      <point x="78" y="-119" type="curve" smooth="yes"/>
      <point x="78" y="-45"/>
      <point x="127" y="0"/>
      <point x="208" y="0" type="curve" smooth="yes"/>
      <point x="566" y="0" type="line"/>
      <point x="566" y="200" type="line" smooth="yes"/>
      <point x="566" y="361"/>
      <point x="476" y="460"/>
    </contour>
    <contour>
      <point x="329" y="-71" type="curve" smooth="yes"/>
      <point x="305" y="-71"/>
      <point x="287" y="-90"/>
      <point x="287" y="-113" type="curve" smooth="yes"/>
      <point x="287" y="-137"/>
      <point x="305" y="-155"/>
      <point x="329" y="-155" type="curve" smooth="yes"/>
      <point x="353" y="-155"/>
      <point x="371" y="-137"/>
      <point x="371" y="-113" type="curve" smooth="yes"/>
      <point x="371" y="-90"/>
      <point x="353" y="-71"/>
    </contour>
  </outline>
</glyph>
<glyph name="reh-ar" format="2">
  <advance width="320"/>
  <unicode hex="0631"/>
  <anchor x="202" y="450" name="top"/>
  <anchor x="102" y="-180" name="bottom"/>
  <outline>
    <contour>
      <point x="-20" y="-180" type="line"/>
      <point x="22" y="-180" type="line" smooth="yes"/>
      <point x="152" y="-180"/>
      <point x="230" y="-124"/>
      <point x="230" y="34" type="curve" smooth="yes"/>
      <point x="230" y="450" type="line"/>
      <point x="172" y="450" type="line"/>
      <point x="172" y="34" type="line" smooth="yes"/>
      <point x="172" y="-92"/>
      <point x="121" y="-126"/>
      <point x="22" y="-126" type="curve" smooth="yes"/>
      <point x="-20" y="-126" type="line"/>
    </contour>
  </outline>
</glyph>
<glyph name="dammatan-ar" format="2">
  <unicode hex="064C"/>
  <anchor x="160" y="829" name="top"/>
  <anchor x="162" y="535" name="_top"/>
  <outline>
    <contour>
      <point x="20" y="731" type="line"/>
      <point x="49" y="731" type="line" smooth="yes"/>
      <point x="77" y="731"/>
      <point x="89" y="718"/>
      <point x="89" y="693" type="curve" smooth="yes"/>
      <point x="89" y="647" type="line"/>
      <point x="200" y="647" type="line" smooth="yes"/>
      <point x="271" y="647"/>
      <point x="298" y="684"/>
      <point x="298" y="737" type="curve" smooth="yes"/>
      <point x="298" y="799" type="line" smooth="yes"/>
      <point x="298" y="855"/>
      <point x="267" y="891"/>
      <point x="218" y="891" type="curve" smooth="yes"/>
      <point x="173" y="891"/>
      <point x="140" y="856"/>
      <point x="140" y="807" type="curve" smooth="yes"/>
      <point x="140" y="752"/>
      <point x="178" y="720"/>
      <point x="241" y="720" type="curve" smooth="yes"/>
      <point x="257" y="720" type="line"/>
      <point x="253" y="699"/>
      <point x="239" y="687"/>
      <point x="200" y="687" type="curve" smooth="yes"/>
      <point x="129" y="687" type="line"/>
      <point x="129" y="698" type="line" smooth="yes"/>
      <point x="129" y="750"/>
      <point x="101" y="771"/>
      <point x="53" y="771" type="curve" smooth="yes"/>
      <point x="20" y="771" type="line"/>
    </contour>
    <contour>
      <point x="241" y="760" type="line" smooth="yes"/>
      <point x="199" y="760"/>
      <point x="180" y="775"/>
      <point x="180" y="807" type="curve" smooth="yes"/>
      <point x="180" y="834"/>
      <point x="195" y="851"/>
      <point x="218" y="851" type="curve" smooth="yes"/>
      <point x="244" y="851"/>
      <point x="258" y="834"/>
      <point x="258" y="799" type="curve" smooth="yes"/>
      <point x="258" y="760" type="line"/>
    </contour>
  </outline>
</glyph>
<glyph name="damma-ar" format="2">
  <unicode hex="064F"/>
  <anchor x="102" y="826" name="top"/>
  <anchor x="104" y="535" name="_top"/>
  <outline>
    <contour>
      <point x="178" y="728" type="curve" smooth="yes"/>
      <point x="178" y="796" type="line" smooth="yes"/>
      <point x="178" y="852"/>
      <point x="147" y="888"/>
      <point x="98" y="888" type="curve" smooth="yes"/>
      <point x="53" y="888"/>
      <point x="20" y="853"/>
      <point x="20" y="804" type="curve" smooth="yes"/>
      <point x="20" y="749"/>
      <point x="58" y="717"/>
      <point x="121" y="717" type="curve" smooth="yes"/>
      <point x="137" y="717" type="line"/>
      <point x="135" y="694"/>
      <point x="124" y="687"/>
      <point x="100" y="687" type="curve" smooth="yes"/>
      <point x="39" y="687" type="line"/>
      <point x="39" y="647" type="line"/>
      <point x="100" y="647" type="line" smooth="yes"/>
      <point x="151" y="647"/>
      <point x="178" y="675"/>
    </contour>
    <contour>
      <point x="121" y="757" type="line" smooth="yes"/>
      <point x="79" y="757"/>
      <point x="60" y="772"/>
      <point x="60" y="804" type="curve" smooth="yes"/>
      <point x="60" y="831"/>
      <point x="75" y="848"/>
      <point x="98" y="848" type="curve" smooth="yes"/>
      <point x="124" y="848"/>
      <point x="138" y="831"/>
      <point x="138" y="796" type="curve" smooth="yes"/>
      <point x="138" y="757" type="line"/>
    </contour>
  </outline>
</glyph>
<glyph name="hamzabelow-ar" format="2">
  <unicode hex="0655"/>
  <anchor x="139" y="0" name="_bottom"/>
  <anchor x="139" y="-237" name="bottom"/>
  <outline>
    <contour>
      <point x="20" y="-227" type="line"/>
      <point x="20" y="-277" type="line"/>
      <point x="258" y="-277" type="line"/>
      <point x="258" y="-227" type="line"/>
      <point x="116" y="-227" type="line"/>
      <point x="102" y="-209"/>
      <point x="99" y="-195"/>
      <point x="99" y="-180" type="curve" smooth="yes"/>
      <point x="99" y="-152"/>
      <point x="117" y="-132"/>
      <point x="147" y="-132" type="curve" smooth="yes"/>
      <point x="167" y="-132"/>
      <point x="184" y="-140"/>
      <point x="197" y="-160" type="curve"/>
      <point x="236" y="-133" type="line"/>
      <point x="218" y="-101"/>
      <point x="188" y="-82"/>
      <point x="145" y="-82" type="curve" smooth="yes"/>
      <point x="89" y="-82"/>
      <point x="49" y="-122"/>
      <point x="49" y="-178" type="curve" smooth="yes"/>
      <point x="49" y="-195"/>
      <point x="54" y="-212"/>
      <point x="61" y="-227" type="curve"/>
    </contour>
  </outline>
</glyph>
<glyph name="six-ar" format="2">
  <advance width="516"/>
  <unicode hex="0666"/>
  <outline>
    <contour>
      <point x="406" y="0" type="line"/>
      <point x="406" y="627" type="line"/>
      <point x="30" y="627" type="line"/>
      <point x="30" y="573" type="line"/>
      <point x="348" y="573" type="line"/>
      <point x="348" y="0" type="line"/>
    </contour>
  </outline>
</glyph>
<glyph name="seven-ar" format="2">
  <advance width="586"/>
  <unicode hex="0667"/>
  <outline>
    <contour>
      <point x="263" y="0" type="line"/>
      <point x="323" y="0" type="line"/>
      <point x="546" y="627" type="line"/>
      <point x="485" y="627" type="line"/>
      <point x="293" y="78" type="line"/>
      <point x="101" y="627" type="line"/>
      <point x="40" y="627" type="line"/>
    </contour>
  </outline>
</glyph>
<glyph name="fehDotless-ar" format="2">
  <advance width="1042"/>
  <unicode hex="06A1"/>
  <anchor x="760" y="460" name="top"/>
  <anchor x="546" y="0" name="bottom"/>
  <outline>
    <contour>
      <point x="972" y="0" type="line"/>
      <point x="972" y="210" type="line" smooth="yes"/>
      <point x="972" y="365"/>
      <point x="892" y="460"/>
      <point x="760" y="460" type="curve" smooth="yes"/>
      <point x="639" y="460"/>
      <point x="553" y="369"/>
      <point x="553" y="241" type="curve" smooth="yes"/>
      <point x="553" y="172"/>
      <point x="578" y="107"/>
      <point x="624" y="54" type="curve"/>
      <point x="259" y="54" type="line" smooth="yes"/>
      <point x="141" y="54"/>
      <point x="88" y="86"/>
      <point x="88" y="212" type="curve" smooth="yes"/>
      <point x="88" y="360" type="line"/>
      <point x="30" y="360" type="line"/>
      <point x="30" y="214" type="line" smooth="yes"/>
      <point x="30" y="56"/>
      <point x="108" y="0"/>
      <point x="258" y="0" type="curve" smooth="yes"/>
    </contour>
    <contour>
      <point x="611" y="241" type="curve" smooth="yes"/>
      <point x="611" y="338"/>
      <point x="670" y="406"/>
      <point x="760" y="406" type="curve" smooth="yes"/>
      <point x="860" y="406"/>
      <point x="914" y="335"/>
      <point x="914" y="210" type="curve" smooth="yes"/>
      <point x="914" y="54" type="line"/>
      <point x="705" y="54" type="line"/>
      <point x="639" y="108"/>
      <point x="611" y="173"/>
    </contour>
  </outline>
</glyph>
<glyph name="yehbarree-ar" format="2">
  <advance width="982"/>
  <unicode hex="06D2"/>
  <anchor x="186" y="322" name="top"/>
  <anchor x="491" y="0" name="bottom"/>
  <outline>
    <contour>
      <point x="962" y="54" type="line"/>
      <point x="88" y="54" type="line"/>
      <point x="88" y="109" type="line" smooth="yes"/>
      <point x="88" y="203"/>
      <point x="119" y="236"/>
      <point x="220" y="236" type="curve" smooth="yes"/>
      <point x="297" y="236" type="line" smooth="yes"/>
      <point x="414" y="236"/>
      <point x="468" y="288"/>
      <point x="468" y="400" type="curve" smooth="yes"/>
      <point x="468" y="450" type="line"/>
      <point x="410" y="450" type="line"/>
      <point x="410" y="400" type="line" smooth="yes"/>
      <point x="410" y="320"/>
      <point x="383" y="290"/>
      <point x="297" y="290" type="curve" smooth="yes"/>
      <point x="220" y="290" type="line" smooth="yes"/>
      <point x="89" y="290"/>
      <point x="30" y="235"/>
      <point x="30" y="109" type="curve" smooth="yes"/>
      <point x="30" y="0" type="line"/>
      <point x="962" y="0" type="line"/>
    </contour>
  </outline>
</glyph>
<glyph name="four-persian" format="2">
  <advance width="566"/>
  <unicode hex="06F4"/>
  <outline>
    <contour>
      <point x="110" y="0" type="line"/>
      <point x="168" y="0" type="line"/>
      <point x="168" y="367" type="line"/>
      <point x="367" y="367" type="line" smooth="yes"/>
      <point x="473" y="367"/>
      <point x="526" y="420"/>
      <point x="526" y="525" type="curve"/>
      <point x="468" y="525" type="line"/>
      <point x="468" y="451"/>
      <point x="442" y="421"/>
      <point x="367" y="421" type="curve" smooth="yes"/>
      <point x="315" y="421" type="line"/>
      <point x="315" y="495" type="line" smooth="yes"/>
      <point x="315" y="545"/>
      <point x="331" y="573"/>
      <point x="386" y="573" type="curve" smooth="yes"/>
      <point x="411" y="573" type="line"/>
      <point x="411" y="627" type="line"/>
      <point x="386" y="627" type="line" smooth="yes"/>
      <point x="303" y="627"/>
      <point x="257" y="583"/>
      <point x="257" y="495" type="curve" smooth="yes"/>
      <point x="257" y="421" type="line"/>
      <point x="168" y="421" type="line"/>
      <point x="168" y="627" type="line"/>
      <point x="110" y="627" type="line"/>
    </contour>
  </outline>
</glyph>
<glyph name="bahtthai" format="2">
  <advance width="704"/>
  <unicode hex="0E3F"/>
  <outline>
    <contour>
      <point x="387" y="-121" type="line"/>
      <point x="387" y="0" type="line"/>
      <point x="411" y="0" type="line" smooth="yes"/>
      <point x="569" y="0"/>
      <point x="641" y="80"/>
      <point x="641" y="179" type="curve" smooth="yes"/>
      <point x="641" y="268"/>
      <point x="589" y="333"/>
      <point x="465" y="353" type="curve"/>
      <point x="581" y="382"/>
      <point x="628" y="444"/>
      <point x="628" y="524" type="curve" smooth="yes"/>
      <point x="628" y="633"/>
      <point x="550" y="700"/>
      <point x="404" y="700" type="curve" smooth="yes"/>
      <point x="387" y="700" type="line"/>
      <point x="387" y="802" type="line"/>
      <point x="330" y="802" type="line"/>
      <point x="330" y="700" type="line"/>
      <point x="98" y="700" type="line"/>
      <point x="98" y="0" type="line"/>
      <point x="330" y="0" type="line"/>
      <point x="330" y="-121" type="line"/>
    </contour>
    <contour>
      <point x="336" y="650" type="line"/>
      <point x="336" y="378" type="line"/>
      <point x="159" y="378" type="line"/>
      <point x="159" y="650" type="line"/>
    </contour>
    <contour>
      <point x="402" y="650" type="line" smooth="yes"/>
      <point x="511" y="650"/>
      <point x="567" y="604"/>
      <point x="567" y="522" type="curve" smooth="yes"/>
      <point x="567" y="448"/>
      <point x="511" y="390"/>
      <point x="381" y="380" type="curve"/>
      <point x="381" y="650" type="line"/>
    </contour>
    <contour>
      <point x="336" y="328" type="line"/>
      <point x="336" y="50" type="line"/>
      <point x="159" y="50" type="line"/>
      <point x="159" y="328" type="line"/>
    </contour>
    <contour>
      <point x="580" y="185" type="curve" smooth="yes"/>
      <point x="580" y="109"/>
      <point x="529" y="50"/>
      <point x="417" y="50" type="curve" smooth="yes"/>
      <point x="381" y="50" type="line"/>
      <point x="381" y="327" type="line"/>
      <point x="525" y="321"/>
      <point x="580" y="258"/>
    </contour>
  </outline>
</glyph>
<glyph name="quoteleft" format="2">
  <advance width="230"/>
  <unicode hex="2018"/>
  <outline>
    <contour>
      <point x="178" y="700" type="line"/>
      <point x="137" y="700" type="line"/>
      <point x="37" y="499" type="line"/>
      <point x="111" y="499" type="line"/>
    </contour>
  </outline>
</glyph>
<glyph name="daggerdbl" format="2">
  <advance width="404"/>
  <unicode hex="2021"/>
  <outline>
    <contour>
      <point x="342" y="365" type="line"/>
      <point x="342" y="408" type="line"/>
      <point x="221" y="404" type="line"/>
      <point x="221" y="529" type="line"/>
      <point x="352" y="524" type="line"/>
      <point x="352" y="567" type="line"/>
      <point x="222" y="563" type="line"/>
      <point x="226" y="700" type="line"/>
      <point x="178" y="700" type="line"/>
      <point x="182" y="563" type="line"/>
      <point x="52" y="567" type="line"/>
      <point x="52" y="524" type="line"/>
      <point x="183" y="529" type="line"/>
      <point x="183" y="404" type="line"/>
      <point x="62" y="408" type="line"/>
      <point x="62" y="365" type="line"/>
      <point x="182" y="370" type="line"/>
      <point x="178" y="231" type="line"/>
      <point x="226" y="231" type="line"/>
      <point x="222" y="370" type="line"/>
    </contour>
  </outline>
</glyph>
<glyph name="bullet" format="2">
  <advance width="429"/>
  <unicode hex="2022"/>
  <guideline x="148" y="846" angle="90.0" identifier="6he86Aoa2f"/>
  <outline>
    <contour>
      <point x="329" y="466" type="line"/>
      <point x="100" y="466" type="line"/>
      <point x="100" y="241" type="line"/>
      <point x="329" y="241" type="line"/>
    </contour>
  </outline>
</glyph>
<glyph name="ellipsis" format="2">
  <advance width="621"/>
  <unicode hex="2026"/>
  <outline>
    <contour>
      <point x="142" y="79" type="line"/>
      <point x="65" y="79" type="line"/>
      <point x="65" y="0" type="line"/>
      <point x="142" y="0" type="line"/>
    </contour>
    <contour>
      <point x="349" y="79" type="line"/>
      <point x="272" y="79" type="line"/>
      <point x="272" y="0" type="line"/>
      <point x="349" y="0" type="line"/>
    </contour>
    <contour>
      <point x="556" y="79" type="line"/>
      <point x="479" y="79" type="line"/>
      <point x="479" y="0" type="line"/>
      <point x="556" y="0" type="line"/>
    </contour>
  </outline>
</glyph>
<glyph name="won" format="2">
  <advance width="975"/>
  <unicode hex="20A9"/>
  <outline>
    <contour>
      <point x="217" y="0" type="line"/>
      <point x="312" y="0" type="line"/>
      <point x="385" y="279" type="line"/>
      <point x="589" y="279" type="line"/>
      <point x="663" y="0" type="line"/>
      <point x="757" y="0" type="line"/>
      <point x="805" y="275" type="line"/>
      <point x="927" y="275" type="line"/>
      <point x="927" y="323" type="line"/>
      <point x="813" y="323" type="line"/>
      <point x="830" y="417" type="line"/>
      <point x="927" y="417" type="line"/>
      <point x="927" y="465" type="line"/>
      <point x="838" y="465" type="line"/>
      <point x="879" y="700" type="line"/>
      <point x="820" y="700" type="line"/>
      <point x="780" y="461" type="line"/>
      <point x="599" y="461" type="line"/>
      <point x="535" y="700" type="line"/>
      <point x="441" y="700" type="line"/>
      <point x="378" y="461" type="line"/>
      <point x="196" y="461" type="line"/>
      <point x="156" y="700" type="line"/>
      <point x="96" y="700" type="line"/>
      <point x="137" y="465" type="line"/>
      <point x="48" y="465" type="line"/>
      <point x="48" y="417" type="line"/>
      <point x="145" y="417" type="line"/>
      <point x="161" y="323" type="line"/>
      <point x="48" y="323" type="line"/>
      <point x="48" y="275" type="line"/>
      <point x="169" y="275" type="line"/>
    </contour>
    <contour>
      <point x="432" y="461" type="line"/>
      <point x="487" y="669" type="line"/>
      <point x="541" y="461" type="line"/>
    </contour>
    <contour>
      <point x="636" y="319" type="line"/>
      <point x="609" y="421" type="line"/>
      <point x="773" y="421" type="line"/>
      <point x="756" y="319" type="line"/>
    </contour>
    <contour>
      <point x="395" y="319" type="line"/>
      <point x="422" y="421" type="line"/>
      <point x="552" y="421" type="line"/>
      <point x="579" y="319" type="line"/>
    </contour>
    <contour>
      <point x="220" y="319" type="line"/>
      <point x="203" y="421" type="line"/>
      <point x="367" y="421" type="line"/>
      <point x="340" y="319" type="line"/>
    </contour>
    <contour>
      <point x="647" y="279" type="line"/>
      <point x="750" y="279" type="line"/>
      <point x="710" y="42" type="line"/>
    </contour>
    <contour>
      <point x="226" y="279" type="line"/>
      <point x="330" y="279" type="line"/>
      <point x="266" y="39" type="line"/>
    </contour>
  </outline>
</glyph>
<glyph name="Euro" format="2">
  <advance width="692"/>
  <unicode hex="20AC"/>
  <outline>
    <contour>
      <point x="19" y="255" type="line"/>
      <point x="121" y="255" type="line"/>
      <point x="136" y="83"/>
      <point x="240" y="-16"/>
      <point x="385" y="-16" type="curve" smooth="yes"/>
      <point x="511" y="-16"/>
      <point x="594" y="44"/>
      <point x="638" y="163" type="curve"/>
      <point x="589" y="182" type="line"/>
      <point x="541" y="76"/>
      <point x="480" y="35"/>
      <point x="387" y="35" type="curve" smooth="yes"/>
      <point x="276" y="35"/>
      <point x="198" y="116"/>
      <point x="184" y="256" type="curve"/>
      <point x="448" y="256" type="line"/>
      <point x="448" y="302" type="line"/>
      <point x="182" y="302" type="line"/>
      <point x="182" y="400" type="line"/>
      <point x="448" y="400" type="line"/>
      <point x="448" y="446" type="line"/>
      <point x="184" y="446" type="line"/>
      <point x="199" y="581"/>
      <point x="279" y="665"/>
      <point x="389" y="665" type="curve" smooth="yes"/>
      <point x="480" y="665"/>
      <point x="536" y="623"/>
      <point x="575" y="518" type="curve"/>
      <point x="630" y="535" type="line"/>
      <point x="589" y="654"/>
      <point x="515" y="716"/>
      <point x="391" y="716" type="curve" smooth="yes"/>
      <point x="249" y="716"/>
      <point x="139" y="612"/>
      <point x="121" y="447" type="curve"/>
      <point x="19" y="447" type="line"/>
      <point x="19" y="399" type="line"/>
      <point x="119" y="399" type="line"/>
      <point x="119" y="303" type="line"/>
      <point x="19" y="303" type="line"/>
    </contour>
  </outline>
</glyph>
<glyph name="tenge" format="2">
  <advance width="692"/>
  <unicode hex="20B8"/>
  <outline>
    <contour>
      <point x="45" y="650" type="line"/>
      <point x="647" y="650" type="line"/>
      <point x="647" y="700" type="line"/>
      <point x="45" y="700" type="line"/>
    </contour>
    <contour>
      <point x="317" y="0" type="line"/>
      <point x="375" y="0" type="line"/>
      <point x="375" y="502" type="line"/>
      <point x="647" y="502" type="line"/>
      <point x="647" y="556" type="line"/>
      <point x="45" y="556" type="line"/>
      <point x="45" y="502" type="line"/>
      <point x="317" y="502" type="line"/>
    </contour>
  </outline>
</glyph>
<glyph name="uni20B9" format="2">
  <advance width="638"/>
  <unicode hex="20B9"/>
  <outline>
    <contour>
      <point x="58" y="466" type="line"/>
      <point x="424" y="466" type="line"/>
      <point x="412" y="380"/>
      <point x="359" y="331"/>
      <point x="233" y="331" type="curve" smooth="yes"/>
      <point x="58" y="331" type="line"/>
      <point x="58" y="287" type="line"/>
      <point x="493" y="0" type="line"/>
      <point x="595" y="0" type="line"/>
      <point x="161" y="283" type="line"/>
      <point x="230" y="283" type="line" smooth="yes"/>
      <point x="396" y="283"/>
      <point x="473" y="347"/>
      <point x="488" y="466" type="curve"/>
      <point x="589" y="466" type="line"/>
      <point x="589" y="512" type="line"/>
      <point x="490" y="512" type="line"/>
      <point x="490" y="652" type="line"/>
      <point x="589" y="652" type="line"/>
      <point x="589" y="700" type="line"/>
      <point x="58" y="700" type="line"/>
      <point x="58" y="652" type="line"/>
      <point x="427" y="652" type="line"/>
      <point x="427" y="512" type="line"/>
      <point x="58" y="512" type="line"/>
    </contour>
  </outline>
</glyph>
<glyph name="approxequal" format="2">
  <advance width="600"/>
  <unicode hex="2248"/>
  <guideline x="397" y="499" angle="0.0" identifier="zWtdUqFbMK"/>
  <outline>
    <contour>
      <point x="548" y="535" type="curve"/>
      <point x="505" y="554" type="line"/>
      <point x="468" y="464"/>
      <point x="445" y="442"/>
      <point x="420" y="442" type="curve" smooth="yes"/>
      <point x="397" y="442"/>
      <point x="377" y="449"/>
      <point x="303" y="488" type="curve" smooth="yes"/>
      <point x="228" y="528"/>
      <point x="203" y="537"/>
      <point x="177" y="537" type="curve" smooth="yes"/>
      <point x="133" y="537"/>
      <point x="90" y="513"/>
      <point x="44" y="388" type="curve"/>
      <point x="87" y="369" type="line"/>
      <point x="124" y="459"/>
      <point x="148" y="481"/>
      <point x="172" y="481" type="curve" smooth="yes"/>
      <point x="195" y="481"/>
      <point x="215" y="474"/>
      <point x="289" y="435" type="curve" smooth="yes"/>
      <point x="364" y="395"/>
      <point x="390" y="386"/>
      <point x="415" y="386" type="curve" smooth="yes"/>
      <point x="459" y="386"/>
      <point x="502" y="411"/>
    </contour>
    <contour>
      <point x="556" y="318" type="curve"/>
      <point x="513" y="337" type="line"/>
      <point x="476" y="247"/>
      <point x="453" y="225"/>
      <point x="428" y="225" type="curve" smooth="yes"/>
      <point x="405" y="225"/>
      <point x="385" y="232"/>
      <point x="311" y="271" type="curve" smooth="yes"/>
      <point x="236" y="311"/>
      <point x="211" y="320"/>
      <point x="185" y="320" type="curve" smooth="yes"/>
      <point x="141" y="320"/>
      <point x="98" y="296"/>
      <point x="52" y="171" type="curve"/>
      <point x="95" y="152" type="line"/>
      <point x="132" y="242"/>
      <point x="156" y="264"/>
      <point x="180" y="264" type="curve" smooth="yes"/>
      <point x="203" y="264"/>
      <point x="223" y="257"/>
      <point x="297" y="218" type="curve" smooth="yes"/>
      <point x="372" y="178"/>
      <point x="398" y="169"/>
      <point x="423" y="169" type="curve" smooth="yes"/>
      <point x="467" y="169"/>
      <point x="510" y="194"/>
    </contour>
  </outline>
</glyph>
<glyph name="keheh-ar.fina" format="2">
  <advance width="934"/>
  <unicode hex="FB8F"/>
  <anchor x="356" y="560" name="top"/>
  <anchor x="492" y="0" name="bottom"/>
  <outline>
    <contour>
      <point x="780" y="681" type="line"/>
      <point x="746" y="725" type="line"/>
      <point x="412" y="465" type="line"/>
      <point x="426" y="410" type="line"/>
      <point x="638" y="407"/>
      <point x="786" y="331"/>
      <point x="786" y="122" type="curve" smooth="yes"/>
      <point x="786" y="54" type="line"/>
      <point x="259" y="54" type="line" smooth="yes"/>
      <point x="141" y="54"/>
      <point x="88" y="86"/>
      <point x="88" y="212" type="curve" smooth="yes"/>
      <point x="88" y="360" type="line"/>
      <point x="30" y="360" type="line"/>
      <point x="30" y="214" type="line" smooth="yes"/>
      <point x="30" y="56"/>
      <point x="108" y="0"/>
      <point x="258" y="0" type="curve" smooth="yes"/>
      <point x="934" y="0" type="line"/>
      <point x="934" y="54" type="line"/>
      <point x="844" y="54" type="line"/>
      <point x="844" y="122" type="line" smooth="yes"/>
      <point x="844" y="332"/>
      <point x="724" y="443"/>
      <point x="491" y="460" type="curve"/>
    </contour>
  </outline>
</glyph>
<glyph name="hehgoal-ar.medi" format="2">
  <advance width="431"/>
  <unicode hex="FBA9"/>
  <anchor x="229" y="201" name="top"/>
  <anchor x="229" y="-260" name="bottom"/>
  <outline>
    <contour>
      <point x="353" y="54" type="line"/>
      <point x="223" y="-186" type="line"/>
      <point x="145" y="-150"/>
      <point x="123" y="-115"/>
      <point x="123" y="-67" type="curve" smooth="yes"/>
      <point x="123" y="-35"/>
      <point x="134" y="4"/>
      <point x="153" y="54" type="curve"/>
      <point x="0" y="54" type="line" smooth="yes"/>
      <point x="-14" y="54"/>
      <point x="-25" y="52"/>
      <point x="-25" y="25" type="curve" smooth="yes"/>
      <point x="-25" y="1"/>
      <point x="-14" y="0"/>
      <point x="0" y="0" type="curve" smooth="yes"/>
      <point x="78" y="0" type="line"/>
      <point x="69" y="-25"/>
      <point x="64" y="-48"/>
      <point x="64" y="-69" type="curve" smooth="yes"/>
      <point x="64" y="-149"/>
      <point x="104" y="-196"/>
      <point x="243" y="-260" type="curve"/>
      <point x="385" y="0" type="line"/>
      <point x="431" y="0" type="line"/>
      <point x="431" y="54" type="line"/>
    </contour>
  </outline>
</glyph>
<glyph name="yehbarree-ar.fina" format="2">
  <advance width="380"/>
  <unicode hex="FBAF"/>
  <anchor x="154" y="86" name="top"/>
  <anchor x="407" y="-180" name="bottom"/>
  <outline>
    <contour>
      <point x="780" y="-126" type="line"/>
      <point x="88" y="-126" type="line"/>
      <point x="88" y="-119" type="line" smooth="yes"/>
      <point x="88" y="-33"/>
      <point x="119" y="0"/>
      <point x="220" y="0" type="curve" smooth="yes"/>
      <point x="380" y="0" type="line"/>
      <point x="380" y="54" type="line"/>
      <point x="220" y="54" type="line" smooth="yes"/>
      <point x="89" y="54"/>
      <point x="30" y="-1"/>
      <point x="30" y="-127" type="curve" smooth="yes"/>
      <point x="30" y="-180" type="line"/>
      <point x="780" y="-180" type="line"/>
    </contour>
  </outline>
</glyph>
<glyph name="dotabove-ar" format="2">
  <unicode hex="FBB2"/>
  <anchor x="62" y="644" name="top"/>
  <anchor x="62" y="450" name="_top"/>
  <outline>
    <contour>
      <point x="62" y="560" type="curve" smooth="yes"/>
      <point x="86" y="560"/>
      <point x="104" y="578"/>
      <point x="104" y="602" type="curve" smooth="yes"/>
      <point x="104" y="625"/>
      <point x="86" y="644"/>
      <point x="62" y="644" type="curve" smooth="yes"/>
      <point x="38" y="644"/>
      <point x="20" y="625"/>
      <point x="20" y="602" type="curve" smooth="yes"/>
      <point x="20" y="578"/>
      <point x="38" y="560"/>
    </contour>
  </outline>
</glyph>
<glyph name="seen-ar.medi" format="2">
  <advance width="830"/>
  <unicode hex="FEB4"/>
  <anchor x="439" y="370" name="top"/>
  <anchor x="439" y="0" name="bottom"/>
  <outline>
    <contour>
      <point x="710" y="54" type="line"/>
      <point x="710" y="450" type="line"/>
      <point x="652" y="450" type="line"/>
      <point x="652" y="54" type="line"/>
      <point x="468" y="54" type="line"/>
      <point x="468" y="370" type="line"/>
      <point x="410" y="370" type="line"/>
      <point x="410" y="54" type="line"/>
      <point x="226" y="54" type="line"/>
      <point x="226" y="370" type="line"/>
      <point x="168" y="370" type="line"/>
      <point x="168" y="54" type="line"/>
      <point x="0" y="54" type="line" smooth="yes"/>
      <point x="-14" y="54"/>
      <point x="-25" y="52"/>
      <point x="-25" y="25" type="curve" smooth="yes"/>
      <point x="-25" y="1"/>
      <point x="-14" y="0"/>
      <point x="0" y="0" type="curve" smooth="yes"/>
      <point x="830" y="0" type="line"/>
      <point x="830" y="54" type="line"/>
    </contour>
  </outline>
</glyph>
<glyph name="sad-ar.fina" format="2">
  <advance width="1210"/>
  <unicode hex="FEBA"/>
  <anchor x="797" y="450" name="top"/>
  <anchor x="887" y="0" name="bottom"/>
  <outline>
    <contour>
      <point x="30" y="310" type="line"/>
      <point x="30" y="100" type="line" smooth="yes"/>
      <point x="30" y="-83"/>
      <point x="122" y="-180"/>
      <point x="298" y="-180" type="curve" smooth="yes"/>
      <point x="439" y="-180"/>
      <point x="526" y="-118"/>
      <point x="555" y="0" type="curve"/>
      <point x="1210" y="0" type="line"/>
      <point x="1210" y="54" type="line"/>
      <point x="1120" y="54" type="line"/>
      <point x="1120" y="210" type="line" smooth="yes"/>
      <point x="1120" y="367"/>
      <point x="1025" y="450"/>
      <point x="846" y="450" type="curve" smooth="yes"/>
      <point x="566" y="450" type="line"/>
      <point x="566" y="496" type="line"/>
      <point x="508" y="496" type="line"/>
      <point x="508" y="100" type="line" smooth="yes"/>
      <point x="508" y="-54"/>
      <point x="443" y="-126"/>
      <point x="298" y="-126" type="curve" smooth="yes"/>
      <point x="153" y="-126"/>
      <point x="88" y="-54"/>
      <point x="88" y="100" type="curve" smooth="yes"/>
      <point x="88" y="310" type="line"/>
    </contour>
    <contour>
      <point x="566" y="100" type="curve" smooth="yes"/>
      <point x="566" y="396" type="line"/>
      <point x="846" y="396" type="line" smooth="yes"/>
      <point x="994" y="396"/>
      <point x="1062" y="335"/>
      <point x="1062" y="210" type="curve" smooth="yes"/>
      <point x="1062" y="54" type="line"/>
      <point x="564" y="54" type="line"/>
      <point x="565" y="69"/>
      <point x="566" y="84"/>
    </contour>
  </outline>
</glyph>
<glyph name="ain-ar.fina" format="2">
  <advance width="604"/>
  <unicode hex="FECA"/>
  <anchor x="322" y="460" name="top"/>
  <anchor x="303" y="-288" name="bottom"/>
  <outline>
    <contour>
      <point x="208" y="-288" type="curve" smooth="yes"/>
      <point x="324" y="-288" type="line"/>
      <point x="324" y="-234" type="line"/>
      <point x="208" y="-234" type="line" smooth="yes"/>
      <point x="122" y="-234"/>
      <point x="80" y="-201"/>
      <point x="80" y="-147" type="curve" smooth="yes"/>
      <point x="80" y="-73"/>
      <point x="134" y="-37"/>
      <point x="303" y="0" type="curve"/>
      <point x="604" y="0" type="line"/>
      <point x="604" y="54" type="line"/>
      <point x="372" y="54" type="line"/>
      <point x="460" y="135"/>
      <point x="521" y="208"/>
      <point x="521" y="293" type="curve" smooth="yes"/>
      <point x="521" y="394"/>
      <point x="442" y="460"/>
      <point x="322" y="460" type="curve" smooth="yes"/>
      <point x="231" y="460"/>
      <point x="140" y="424"/>
      <point x="64" y="359" type="curve"/>
      <point x="61" y="320" type="line"/>
      <point x="141" y="226"/>
      <point x="196" y="153"/>
      <point x="269" y="49" type="curve"/>
      <point x="144" y="21"/>
      <point x="22" y="-21"/>
      <point x="22" y="-147" type="curve" smooth="yes"/>
      <point x="22" y="-235"/>
      <point x="93" y="-288"/>
    </contour>
    <contour>
      <point x="322" y="406" type="curve" smooth="yes"/>
      <point x="412" y="406"/>
      <point x="463" y="364"/>
      <point x="463" y="295" type="curve" smooth="yes"/>
      <point x="463" y="235"/>
      <point x="430" y="182"/>
      <point x="316" y="79" type="curve"/>
      <point x="247" y="176"/>
      <point x="195" y="250"/>
      <point x="122" y="336" type="curve"/>
      <point x="183" y="382"/>
      <point x="252" y="406"/>
    </contour>
  </outline>
</glyph>
<glyph name="lam-ar.init" format="2">
  <advance width="302"/>
  <unicode hex="FEDF"/>
  <anchor x="184" y="700" name="top"/>
  <anchor x="100" y="0" name="bottom"/>
  <outline>
    <contour>
      <point x="154" y="730" type="line"/>
      <point x="154" y="54" type="line"/>
      <point x="0" y="54" type="line" smooth="yes"/>
      <point x="-14" y="54"/>
      <point x="-25" y="52"/>
      <point x="-25" y="25" type="curve" smooth="yes"/>
      <point x="-25" y="1"/>
      <point x="-14" y="0"/>
      <point x="0" y="0" type="curve" smooth="yes"/>
      <point x="212" y="0" type="line"/>
      <point x="212" y="730" type="line"/>
    </contour>
  </outline>
</glyph>
<glyph name="meem-ar.fina" format="2">
  <advance width="702"/>
  <unicode hex="FEE2"/>
  <anchor x="397" y="395" name="top"/>
  <anchor x="397" y="-80" name="bottom"/>
  <outline>
    <contour>
      <point x="88" y="-288" type="line"/>
      <point x="88" y="-117" type="line" smooth="yes"/>
      <point x="88" y="-36"/>
      <point x="119" y="0"/>
      <point x="196" y="0" type="curve" smooth="yes"/>
      <point x="220" y="0" type="line"/>
      <point x="233" y="-27"/>
      <point x="250" y="-53"/>
      <point x="270" y="-80" type="curve"/>
      <point x="372" y="-80" type="line" smooth="yes"/>
      <point x="463" y="-80"/>
      <point x="527" y="-51"/>
      <point x="566" y="0" type="curve"/>
      <point x="702" y="0" type="line"/>
      <point x="702" y="54" type="line"/>
      <point x="595" y="54" type="line"/>
      <point x="607" y="84"/>
      <point x="612" y="119"/>
      <point x="612" y="158" type="curve" smooth="yes"/>
      <point x="612" y="304"/>
      <point x="529" y="395"/>
      <point x="397" y="395" type="curve" smooth="yes"/>
      <point x="264" y="395"/>
      <point x="180" y="304"/>
      <point x="180" y="158" type="curve" smooth="yes"/>
      <point x="180" y="124"/>
      <point x="186" y="89"/>
      <point x="197" y="54" type="curve"/>
      <point x="196" y="54" type="line" smooth="yes"/>
      <point x="88" y="54"/>
      <point x="30" y="-5"/>
      <point x="30" y="-117" type="curve" smooth="yes"/>
      <point x="30" y="-288" type="line"/>
    </contour>
    <contour>
      <point x="238" y="158" type="curve" smooth="yes"/>
      <point x="238" y="269"/>
      <point x="292" y="341"/>
      <point x="397" y="341" type="curve" smooth="yes"/>
      <point x="501" y="341"/>
      <point x="554" y="269"/>
      <point x="554" y="158" type="curve" smooth="yes"/>
      <point x="554" y="46"/>
      <point x="501" y="-26"/>
      <point x="379" y="-26" type="curve"/>
      <point x="296" y="-26" type="line"/>
      <point x="250" y="41"/>
      <point x="238" y="101"/>
    </contour>
  </outline>
</glyph>
<glyph name="heh-ar.init" format="2">
  <advance width="727"/>
  <unicode hex="FEEB"/>
  <anchor x="296" y="450" name="top"/>
  <anchor x="296" y="0" name="bottom"/>
  <outline>
    <contour>
      <point x="0" y="0" type="curve" smooth="yes"/>
      <point x="657" y="0" type="line"/>
      <point x="657" y="210" type="line" smooth="yes"/>
      <point x="657" y="367"/>
      <point x="562" y="450"/>
      <point x="383" y="450" type="curve" smooth="yes"/>
      <point x="90" y="450" type="line"/>
      <point x="90" y="396" type="line"/>
      <point x="383" y="396" type="line" smooth="yes"/>
      <point x="531" y="396"/>
      <point x="599" y="335"/>
      <point x="599" y="210" type="curve" smooth="yes"/>
      <point x="599" y="54" type="line"/>
      <point x="411" y="54" type="line"/>
      <point x="438" y="85"/>
      <point x="455" y="127"/>
      <point x="455" y="172" type="curve" smooth="yes"/>
      <point x="455" y="266"/>
      <point x="384" y="343"/>
      <point x="296" y="343" type="curve" smooth="yes"/>
      <point x="209" y="343"/>
      <point x="138" y="265"/>
      <point x="138" y="172" type="curve" smooth="yes"/>
      <point x="138" y="127"/>
      <point x="154" y="85"/>
      <point x="181" y="54" type="curve"/>
      <point x="0" y="54" type="line" smooth="yes"/>
      <point x="-14" y="54"/>
      <point x="-25" y="52"/>
      <point x="-25" y="25" type="curve" smooth="yes"/>
      <point x="-25" y="1"/>
      <point x="-14" y="0"/>
    </contour>
    <contour>
      <point x="296" y="54" type="curve" smooth="yes"/>
      <point x="240" y="54"/>
      <point x="196" y="108"/>
      <point x="196" y="172" type="curve" smooth="yes"/>
      <point x="196" y="235"/>
      <point x="240" y="289"/>
      <point x="296" y="289" type="curve" smooth="yes"/>
      <point x="352" y="289"/>
      <point x="397" y="235"/>
      <point x="397" y="172" type="curve" smooth="yes"/>
      <point x="397" y="108"/>
      <point x="353" y="54"/>
    </contour>
  </outline>
</glyph>
<glyph name="alefMaksura-ar.fina" format="2">
  <advance width="900"/>
  <unicode hex="FEF0"/>
  <anchor x="140" y="272" name="top"/>
  <anchor x="423" y="-180" name="bottom"/>
  <outline>
    <contour>
      <point x="320" y="-180" type="curve" smooth="yes"/>
      <point x="526" y="-180" type="line" smooth="yes"/>
      <point x="668" y="-180"/>
      <point x="756" y="-113"/>
      <point x="756" y="0" type="curve" smooth="yes"/>
      <point x="756" y="6"/>
      <point x="756" y="12"/>
      <point x="754" y="26" type="curve"/>
      <point x="812" y="8"/>
      <point x="855" y="0"/>
      <point x="900" y="0" type="curve"/>
      <point x="900" y="54" type="line"/>
      <point x="895" y="54" type="line" smooth="yes"/>
      <point x="807" y="54"/>
      <point x="733" y="91"/>
      <point x="657" y="124" type="curve" smooth="yes"/>
      <point x="583" y="156" type="line"/>
      <point x="563" y="106" type="line"/>
      <point x="599" y="90" type="line" smooth="yes"/>
      <point x="659" y="64"/>
      <point x="698" y="40"/>
      <point x="698" y="0" type="curve" smooth="yes"/>
      <point x="698" y="-79"/>
      <point x="639" y="-126"/>
      <point x="526" y="-126" type="curve" smooth="yes"/>
      <point x="320" y="-126" type="line" smooth="yes"/>
      <point x="156" y="-126"/>
      <point x="88" y="-55"/>
      <point x="88" y="104" type="curve" smooth="yes"/>
      <point x="88" y="270" type="line"/>
      <point x="30" y="270" type="line"/>
      <point x="30" y="104" type="line" smooth="yes"/>
      <point x="30" y="-87"/>
      <point x="125" y="-180"/>
    </contour>
  </outline>
</glyph>
<glyph name="acutecmb.cap" format="2">
  <guideline x="82" y="885" angle="0.0" identifier="0rsWLzZF6m"/>
  <anchor x="0" y="730" name="_aboveUC"/>
  <anchor x="0" y="710" name="_aboveUCx"/>
  <outline>
    <contour>
      <point x="-74" y="805" type="line"/>
      <point x="-59" y="766" type="line"/>
      <point x="135" y="833" type="line"/>
      <point x="113" y="888" type="line"/>
    </contour>
  </outline>
</glyph>
<glyph name="behDotless-ar.init_wide" format="2">
  <advance width="331"/>
  <anchor x="188" y="450" name="top"/>
  <anchor x="128" y="0" name="bottom"/>
  <outline>
    <contour>
      <point x="158" y="450" type="line"/>
      <point x="158" y="54" type="line"/>
      <point x="0" y="54" type="line" smooth="yes"/>
      <point x="-14" y="54"/>
      <point x="-25" y="52"/>
      <point x="-25" y="25" type="curve" smooth="yes"/>
      <point x="-25" y="1"/>
      <point x="-14" y="0"/>
      <point x="0" y="0" type="curve" smooth="yes"/>
      <point x="216" y="0" type="line"/>
      <point x="216" y="450" type="line"/>
    </contour>
  </outline>
</glyph>
<glyph name="caroncmb.cap" format="2">
  <anchor x="0" y="730" name="_aboveUC"/>
  <anchor x="0" y="710" name="_aboveUCx"/>
  <outline>
    <contour>
      <point x="140" y="851" type="line"/>
      <point x="124" y="880" type="line"/>
      <point x="0" y="821" type="line"/>
      <point x="-124" y="880" type="line"/>
      <point x="-140" y="851" type="line"/>
      <point x="-17" y="766" type="line"/>
      <point x="17" y="766" type="line"/>
    </contour>
  </outline>
</glyph>
<glyph name="dieresiscmb.cap" format="2">
  <anchor x="0" y="730" name="_aboveUC"/>
  <anchor x="0" y="710" name="_aboveUCx"/>
  <outline>
    <contour>
      <point x="-50" y="844" type="line"/>
      <point x="-119" y="844" type="line"/>
      <point x="-119" y="777" type="line"/>
      <point x="-50" y="777" type="line"/>
    </contour>
    <contour>
      <point x="119" y="844" type="line"/>
      <point x="50" y="844" type="line"/>
      <point x="50" y="777" type="line"/>
      <point x="119" y="777" type="line"/>
    </contour>
  </outline>
</glyph>
<glyph name="dotcenter-ar" format="2">
  <anchor x="62" y="-124" name="_center"/>
  <outline>
    <contour>
      <point x="62" y="-166" type="curve" smooth="yes"/>
      <point x="86" y="-166"/>
      <point x="104" y="-148"/>
      <point x="104" y="-124" type="curve" smooth="yes"/>
      <point x="104" y="-101"/>
      <point x="86" y="-82"/>
      <point x="62" y="-82" type="curve" smooth="yes"/>
      <point x="38" y="-82"/>
      <point x="20" y="-101"/>
      <point x="20" y="-124" type="curve" smooth="yes"/>
      <point x="20" y="-148"/>
      <point x="38" y="-166"/>
    </contour>
  </outline>
</glyph>
<glyph name="eight-ar.tab" format="2">
  <advance width="600"/>
  <outline>
    <contour>
      <point x="330" y="627" type="line"/>
      <point x="270" y="627" type="line"/>
      <point x="81" y="0" type="line"/>
      <point x="141" y="0" type="line"/>
      <point x="300" y="551" type="line"/>
      <point x="459" y="0" type="line"/>
      <point x="519" y="0" type="line"/>
    </contour>
  </outline>
</glyph>
<glyph name="seven-ar.tab" format="2">
  <advance width="600"/>
  <outline>
    <contour>
      <point x="270" y="0" type="line"/>
      <point x="330" y="0" type="line"/>
      <point x="519" y="627" type="line"/>
      <point x="459" y="627" type="line"/>
      <point x="300" y="76" type="line"/>
      <point x="141" y="627" type="line"/>
      <point x="81" y="627" type="line"/>
    </contour>
  </outline>
</glyph>
<glyph name="seven.tab" format="2">
  <advance width="600"/>
  <outline>
    <contour>
      <point x="229" y="0" type="line"/>
      <point x="545" y="648" type="line"/>
      <point x="545" y="700" type="line"/>
      <point x="38" y="700" type="line"/>
      <point x="38" y="647" type="line"/>
      <point x="485" y="647" type="line"/>
      <point x="160" y="0" type="line"/>
    </contour>
  </outline>
</glyph>
<glyph name="six-ar.tab" format="2">
  <advance width="600"/>
  <outline>
    <contour>
      <point x="436" y="0" type="line"/>
      <point x="436" y="627" type="line"/>
      <point x="60" y="627" type="line"/>
      <point x="60" y="573" type="line"/>
      <point x="378" y="573" type="line"/>
      <point x="378" y="0" type="line"/>
    </contour>
  </outline>
</glyph>
<glyph name="six-persian.tab" format="2">
  <advance width="600"/>
  <outline>
    <contour>
      <point x="128" y="-22" type="line"/>
      <point x="499" y="313" type="line"/>
      <point x="461" y="355" type="line"/>
      <point x="368" y="271" type="line"/>
      <point x="273" y="328"/>
      <point x="200" y="375"/>
      <point x="200" y="462" type="curve" smooth="yes"/>
      <point x="200" y="530"/>
      <point x="249" y="573"/>
      <point x="337" y="573" type="curve" smooth="yes"/>
      <point x="434" y="573" type="line"/>
      <point x="434" y="627" type="line"/>
      <point x="337" y="627" type="line" smooth="yes"/>
      <point x="219" y="627"/>
      <point x="142" y="562"/>
      <point x="142" y="462" type="curve" smooth="yes"/>
      <point x="142" y="348"/>
      <point x="235" y="285"/>
      <point x="325" y="232" type="curve"/>
      <point x="90" y="20" type="line"/>
    </contour>
  </outline>
</glyph>
<glyph name="slash.tab" format="2">
  <advance width="600"/>
  <outline>
    <contour>
      <point x="591" y="821" type="line"/>
      <point x="535" y="821" type="line"/>
      <point x="9" y="-121" type="line"/>
      <point x="66" y="-121" type="line"/>
    </contour>
  </outline>
</glyph>
<glyph name="tildecmb.cap" format="2">
  <anchor x="0" y="730" name="_aboveUC"/>
  <anchor x="0" y="710" name="_aboveUCx"/>
  <outline>
    <contour>
      <point x="-9" y="798" type="curve" smooth="yes"/>
      <point x="30" y="769"/>
      <point x="41" y="765"/>
      <point x="60" y="765" type="curve" smooth="yes"/>
      <point x="93" y="765"/>
      <point x="119" y="782"/>
      <point x="139" y="868" type="curve"/>
      <point x="100" y="875" type="line"/>
      <point x="87" y="819"/>
      <point x="71" y="810"/>
      <point x="56" y="810" type="curve" smooth="yes"/>
      <point x="46" y="810"/>
      <point x="40" y="813"/>
      <point x="3" y="842" type="curve" smooth="yes"/>
      <point x="-36" y="871"/>
      <point x="-48" y="875"/>
      <point x="-66" y="875" type="curve" smooth="yes"/>
      <point x="-99" y="875"/>
      <point x="-125" y="858"/>
      <point x="-145" y="772" type="curve"/>
      <point x="-106" y="765" type="line"/>
      <point x="-93" y="821"/>
      <point x="-77" y="830"/>
      <point x="-62" y="830" type="curve" smooth="yes"/>
      <point x="-52" y="830"/>
      <point x="-46" y="827"/>
    </contour>
  </outline>
</glyph>
<glyph name="two.tab" format="2">
  <advance width="600"/>
  <outline>
    <contour>
      <point x="67" y="0" type="line"/>
      <point x="548" y="0" type="line"/>
      <point x="548" y="51" type="line"/>
      <point x="136" y="51" type="line"/>
      <point x="355" y="248" type="line" smooth="yes"/>
      <point x="485" y="365"/>
      <point x="530" y="426"/>
      <point x="530" y="523" type="curve" smooth="yes"/>
      <point x="530" y="639"/>
      <point x="439" y="717"/>
      <point x="312" y="717" type="curve" smooth="yes"/>
      <point x="169" y="717"/>
      <point x="76" y="624"/>
      <point x="72" y="476" type="curve"/>
      <point x="131" y="476" type="line"/>
      <point x="135" y="597"/>
      <point x="204" y="665"/>
      <point x="310" y="665" type="curve" smooth="yes"/>
      <point x="401" y="665"/>
      <point x="467" y="611"/>
      <point x="467" y="521" type="curve" smooth="yes"/>
      <point x="467" y="448"/>
      <point x="433" y="392"/>
      <point x="316" y="286" type="curve" smooth="yes"/>
      <point x="67" y="60" type="line"/>
    </contour>
  </outline>
</glyph>
<glyph name="zero-ar.tab" format="2">
  <advance width="600"/>
  <outline>
    <contour>
      <point x="300" y="281" type="line"/>
      <point x="238" y="220" type="line"/>
      <point x="300" y="158" type="line"/>
      <point x="362" y="219" type="line"/>
    </contour>
  </outline>
</glyph>
